<svg width="200" height="95" viewBox="0 0 200 95" fill="none" xmlns="http://www.w3.org/2000/svg">
<path d="M115.728 7.72122V23.2317H135.187V28.7915H115.728V74.5855C115.728 79.2687 116.482 82.8514 117.997 85.3391C119.509 87.8267 122.116 89.0692 125.826 89.0692C127.582 89.0692 129.094 88.9727 130.362 88.777C131.63 88.5841 132.702 88.3373 133.581 88.0452L134.313 93.3127C131.973 94.385 128.85 94.9239 124.949 94.9239C121.73 94.9239 119.072 94.385 116.976 93.3127C114.877 92.2405 113.22 90.7541 112 88.8508C110.781 86.9474 109.927 84.6583 109.439 81.9748C108.948 79.2943 108.707 76.3924 108.707 73.2693V28.7915H97.1478V23.2317H108.707V10.3536L115.728 7.72122ZM146.454 23.2289L162.548 66.8302C163.913 70.2455 165.133 73.465 166.205 76.486C167.277 79.5098 168.301 82.4854 169.277 85.41H169.569C170.542 82.5819 171.591 79.629 172.715 76.5569C173.835 73.4849 175.081 70.2427 176.445 66.8274L192.684 23.2261H200L172.054 93.4546H166.054L139.138 23.2289H146.454Z" fill="#231F20"/>
<path d="M42.6965 8.26017C48.9341 0.0397131 57.6056 0 57.6056 0C57.6056 0 58.8963 7.72973 52.6983 15.173C46.0834 23.1239 38.5635 21.8219 38.5635 21.8219C38.5635 21.8219 37.1509 15.5701 42.6965 8.26017ZM39.355 27.237C42.5631 27.237 48.5172 22.8261 56.2696 22.8261C69.6129 22.8261 74.8607 32.3202 74.8607 32.3202C74.8607 32.3202 64.595 37.5679 64.595 50.3042C64.595 64.6716 77.3824 69.6215 77.3824 69.6215C77.3824 69.6215 68.4443 94.7821 56.3689 94.7821C50.8233 94.7821 46.5117 91.0434 40.6683 91.0434C34.7143 91.0434 28.8028 94.9211 24.9564 94.9211C13.9305 94.9239 0 71.0539 0 51.87C0 32.9925 11.7917 23.0899 22.8488 23.0899C30.0396 23.0899 35.6192 27.237 39.355 27.237Z" fill="#231F20"/>
</svg>
