<svg width="179" height="31" viewBox="0 0 179 31" fill="none" xmlns="http://www.w3.org/2000/svg">
<path d="M21.945 30.7305H13.739V19.029H8.43032V30.7305H0V0.542082H8.41162V11.8137H13.7203V0.542082H21.9263L21.945 30.7305ZM59.5917 30.8613C68.0033 30.8613 74.8634 23.8703 74.8634 15.3465C74.8634 6.69191 68.0033 0 59.5917 0C51.0679 0 46.7686 6.18721 45.7218 8.7107C45.7218 4.9722 41.9833 0.504697 37.6467 0.504697H23.6273V30.7305H36.6747C41.9833 30.7305 45.7218 26.1882 45.7218 22.2067C46.8995 24.6741 51.0866 30.8613 59.5917 30.8613ZM35.6279 18.599C36.8429 18.599 37.8149 19.7767 37.8149 21.1225C37.8149 22.5245 36.8429 23.7208 35.6279 23.7208H31.4408V18.599H35.6279ZM35.6279 7.25269C36.8429 7.25269 37.8149 8.43032 37.8149 9.77617C37.8149 11.122 36.8429 12.2997 35.6279 12.2997H31.4408V7.25269H35.6279ZM41.1609 15.3465C42.1329 15.2905 43.7217 14.1689 44.3199 13.496C44.0956 14.2998 44.0956 16.8606 44.3199 17.6831C43.647 16.6924 42.1329 15.5335 41.1609 15.3465ZM51.9277 15.3465C51.9277 11.0846 55.3859 7.64523 59.6478 7.66392C63.9283 7.70131 67.3304 11.1781 67.2743 15.4587C67.2182 19.6645 63.8162 23.0478 59.5917 23.0478C55.3485 23.0665 51.9277 19.6271 51.9277 15.3465ZM59.5917 21.4029C62.8629 21.4029 65.6107 18.7112 65.6107 15.3465C65.6107 11.9819 62.8629 9.32755 59.5917 9.32755C56.227 9.32755 53.5353 11.9819 53.5353 15.3465C53.5353 18.7112 56.2083 21.4029 59.5917 21.4029Z" fill="black"/>
<path d="M118.753 11.2155C118.585 3.88804 113.407 0.0186926 107.052 0.0186926C103.575 0.0186926 100.435 1.17763 98.2852 3.45811C96.1542 1.19632 93.0139 0.0186926 89.5184 0.0186926C83.1629 0.0186926 77.9851 3.90673 77.8169 11.2342V27.9827C77.8169 29.5154 79.0693 30.7491 80.5834 30.7491H83.2003C83.462 30.7491 83.6676 30.5435 83.6676 30.2818V11.2716C83.7798 7.66392 86.3407 5.75729 89.4997 5.75729C92.6587 5.75729 95.2196 7.66392 95.3318 11.2716V27.964C95.3318 29.4968 96.5842 30.7305 98.0983 30.7305H100.715C100.977 30.7305 101.183 30.5248 101.183 30.2631V11.2529C101.295 7.64523 103.856 5.7386 107.015 5.7386C110.174 5.7386 112.734 7.64523 112.847 11.2529V27.9453C112.847 29.4781 114.099 30.7118 115.613 30.7118H118.23C118.492 30.7118 118.697 30.5061 118.697 30.2445L118.753 11.2155C118.772 11.2529 118.753 11.2342 118.753 11.2155ZM177.822 0.504697H173.373C172.139 0.504697 170.999 1.12155 170.289 2.14964L165.373 9.43971C164.718 10.393 163.335 10.393 162.681 9.43971L157.765 2.14964C157.092 1.12155 155.914 0.504697 154.68 0.504697H150.232C149.951 0.504697 149.802 0.803777 149.933 1.04678L158.718 14.0754C159.354 15.0101 159.354 16.2438 158.718 17.1784L149.933 30.2071C149.764 30.4314 149.951 30.7491 150.232 30.7491H154.68C155.914 30.7491 157.054 30.1323 157.765 29.1042L162.681 21.8141C163.335 20.8608 164.718 20.8608 165.373 21.8141L170.289 29.1042C170.962 30.1323 172.139 30.7491 173.373 30.7491H177.822C178.102 30.7491 178.252 30.4501 178.121 30.2071L169.335 17.1971C168.7 16.2625 168.7 15.0288 169.335 14.0941L178.121 1.06547C178.252 0.82247 178.083 0.504697 177.822 0.504697ZM147.914 0.504697H145.297C143.97 0.504697 142.848 1.43932 142.568 2.69172C140.231 0.89724 137.315 0 134.156 0C126.473 0 120.249 5.34605 120.249 15.44C120.249 25.5339 126.473 30.88 134.156 30.88C137.296 30.88 140.194 29.9828 142.53 28.2444C142.661 29.6463 143.839 30.7678 145.297 30.7678H147.914C148.175 30.7678 148.381 30.5622 148.381 30.3005V0.97201C148.362 0.710315 148.175 0.504697 147.914 0.504697ZM134.156 25.1414C129.576 25.1414 125.857 21.7954 125.857 15.4587C125.857 9.12193 129.576 5.77598 134.156 5.77598C138.736 5.77598 142.456 9.12193 142.456 15.4587C142.456 21.7954 138.736 25.1414 134.156 25.1414Z" fill="url(#paint0_linear_4_78)"/>
<defs>
<linearGradient id="paint0_linear_4_78" x1="77.8432" y1="15.4338" x2="178.162" y2="15.4338" gradientUnits="userSpaceOnUse">
<stop stop-color="#991EEB"/>
<stop offset="0.399" stop-color="#5822B4"/>
<stop offset="0.727" stop-color="#5822B4"/>
<stop offset="1" stop-color="#991EEB"/>
</linearGradient>
</defs>
</svg>
