<svg width="425" height="58" viewBox="0 0 425 58" fill="none" xmlns="http://www.w3.org/2000/svg">
<path d="M18.05 57.2843C16.5167 57.2843 15.0333 56.651 13.6 55.3843C12.2 54.1176 11.0167 52.2843 10.05 49.8843C9.11667 47.4843 8.56667 44.5843 8.4 41.1843C7.36667 41.2843 6.41667 41.3343 5.55 41.3343C3.61667 41.3343 2.2 41.0843 1.3 40.5843C0.433333 40.0843 -7.07805e-08 39.4343 -7.07805e-08 38.6343C-7.07805e-08 37.8343 0.383333 36.951 1.15 35.9843C1.91667 35.0176 2.98333 34.051 4.35 33.0843C5.71667 32.0843 7.31667 31.1843 9.15 30.3843C9.78333 26.9843 10.8 23.3176 12.2 19.3843C13.6333 15.4176 15.55 11.2176 17.95 6.7843C18.1833 6.35097 18.5333 6.1343 19 6.1343C19.3 6.1343 19.5667 6.2343 19.8 6.4343C20.0333 6.6343 20.15 6.90097 20.15 7.2343C20.15 7.40097 20.1 7.61763 20 7.8843C17.8667 12.1843 16.0833 16.1343 14.65 19.7343C13.25 23.301 12.15 26.5676 11.35 29.5343C12.85 28.9676 14.45 28.501 16.15 28.1343C17.85 27.7676 19.5833 27.551 21.35 27.4843C21.8167 27.4843 22.05 27.551 22.05 27.6843C22.05 27.8176 21.8833 27.951 21.55 28.0843C21.25 28.1843 20.7333 28.251 20 28.2843C18.3667 28.3843 16.8 28.6176 15.3 28.9843C13.8333 29.3176 12.45 29.7343 11.15 30.2343C10.65 32.1676 10.2667 33.9676 10 35.6343C9.73333 37.2676 9.56667 38.7843 9.5 40.1843C12.9333 39.451 16.05 38.3843 18.85 36.9843C21.6833 35.551 24.1833 33.901 26.35 32.0343C28.5167 30.1676 30.3333 28.2343 31.8 26.2343C32.7333 24.9676 33.4 23.851 33.8 22.8843C34.2333 21.8843 34.45 21.0176 34.45 20.2843C34.45 19.2176 34.1167 18.3843 33.45 17.7843C32.7833 17.151 31.9 16.701 30.8 16.4343C29.7 16.1343 28.5 15.9843 27.2 15.9843C25.8333 15.9843 24.45 16.1176 23.05 16.3843C21.65 16.6176 20.3833 16.951 19.25 17.3843C18.9833 17.451 18.8 17.4843 18.7 17.4843C18.2667 17.4843 18.05 17.3343 18.05 17.0343C18.05 16.7343 18.2333 16.501 18.6 16.3343C22.7 14.001 25.6167 11.8843 27.35 9.9843C29.0833 8.0843 29.95 6.4843 29.95 5.1843C29.95 4.05097 29.4167 3.1843 28.35 2.5843C27.3167 1.95097 25.95 1.6343 24.25 1.6343C22.9167 1.6343 21.4167 1.85097 19.75 2.2843C18.0833 2.71763 16.3667 3.41763 14.6 4.3843C13.1333 5.1843 11.8 6.1343 10.6 7.2343C9.43333 8.30097 8.43333 9.41763 7.6 10.5843C6.8 11.7176 6.2 12.801 5.8 13.8343C5.4 14.8343 5.25 15.6843 5.35 16.3843C5.35 16.451 5.35 16.5343 5.35 16.6343C5.38333 16.701 5.4 16.7676 5.4 16.8343C5.4 17.6676 5.15 18.0843 4.65 18.0843C4.41667 18.0843 4.16667 17.9176 3.9 17.5843C3.66667 17.251 3.55 16.751 3.55 16.0843C3.55 15.0843 3.85 14.0176 4.45 12.8843C5.08333 11.751 5.91667 10.6176 6.95 9.4843C8.01667 8.31763 9.2 7.2343 10.5 6.2343C11.8 5.20097 13.15 4.31763 14.55 3.5843C16.35 2.61763 18.1167 1.90097 19.85 1.4343C21.6167 0.967633 23.2333 0.7343 24.7 0.7343C26.7333 0.7343 28.3833 1.1343 29.65 1.9343C30.9167 2.7343 31.55 3.85097 31.55 5.2843C31.55 6.61763 30.9 8.16763 29.6 9.9343C28.3 11.701 26.1167 13.651 23.05 15.7843C24.0833 15.6176 25.05 15.501 25.95 15.4343C26.85 15.3343 27.6833 15.2843 28.45 15.2843C31.3167 15.2843 33.3833 15.7676 34.65 16.7343C35.95 17.6676 36.6 18.8843 36.6 20.3843C36.6 21.4843 36.2833 22.6843 35.65 23.9843C35.05 25.251 34.2 26.5676 33.1 27.9343C31.5 29.901 29.4833 31.801 27.05 33.6343C24.65 35.4676 21.95 37.051 18.95 38.3843C15.9833 39.7176 12.8167 40.6176 9.45 41.0843C9.38333 44.051 9.65 46.501 10.25 48.4343C10.8833 50.3676 11.6833 51.8676 12.65 52.9343C13.6167 54.0343 14.5833 54.801 15.55 55.2343C16.5167 55.701 17.3167 55.9343 17.95 55.9343C18.4167 55.9343 18.7333 55.851 18.9 55.6843C19.0333 55.5176 19.2333 55.4343 19.5 55.4343C19.7667 55.4343 20.0167 55.5343 20.25 55.7343C20.4833 55.9343 20.6 56.151 20.6 56.3843C20.6 56.5843 20.4833 56.7343 20.25 56.8343C19.5167 57.1343 18.7833 57.2843 18.05 57.2843ZM5.75 40.6843C6.11667 40.6843 6.51667 40.651 6.95 40.5843C7.38333 40.551 7.85 40.501 8.35 40.4343C8.31667 39.0343 8.35 37.5676 8.45 36.0343C8.55 34.501 8.73333 32.901 9 31.2343C6.86667 32.3343 5.18333 33.5676 3.95 34.9343C2.71667 36.2676 2.1 37.451 2.1 38.4843C2.1 39.1176 2.4 39.6343 3 40.0343C3.6 40.4676 4.51667 40.6843 5.75 40.6843ZM34.7633 44.3843C34.3966 44.3843 34.0966 44.2676 33.8633 44.0343C33.5966 43.8343 33.4633 43.551 33.4633 43.1843C33.4633 42.7176 33.6966 42.1676 34.1633 41.5343C34.5966 40.901 35.3299 40.201 36.3633 39.4343C36.5299 39.001 36.6466 38.601 36.7133 38.2343C36.8133 37.8676 36.8966 37.4676 36.9633 37.0343C37.1966 35.5676 37.6133 34.0843 38.2133 32.5843C38.8133 31.051 39.4133 29.6176 40.0133 28.2843C39.3799 28.151 38.7466 27.651 38.1133 26.7843C37.5133 25.9176 37.2133 25.001 37.2133 24.0343C37.2133 23.801 37.2633 23.4176 37.3633 22.8843C37.4633 22.3176 37.6299 22.0343 37.8633 22.0343C38.1633 22.0343 38.3133 22.2843 38.3133 22.7843C38.3133 23.2843 38.3133 23.6343 38.3133 23.8343C38.3133 24.5343 38.5133 25.2343 38.9133 25.9343C39.3133 26.6343 39.7966 27.1343 40.3633 27.4343C40.9299 26.201 41.6466 24.751 42.5133 23.0843C43.3799 21.3843 44.3633 19.601 45.4633 17.7343C46.5633 15.8343 47.7633 13.9843 49.0633 12.1843C50.3633 10.3843 51.7299 8.75097 53.1633 7.2843C54.6299 5.81763 56.1466 4.65097 57.7133 3.7843C59.2799 2.91763 60.8799 2.4843 62.5133 2.4843C63.8466 2.4843 64.8133 2.8343 65.4133 3.5343C66.0133 4.20097 66.3133 5.11763 66.3133 6.2843C66.3133 7.51763 66.0133 8.9343 65.4133 10.5343C64.8133 12.1343 63.9633 13.801 62.8633 15.5343C61.7966 17.2343 60.5466 18.901 59.1133 20.5343C57.6799 22.1343 56.1133 23.601 54.4133 24.9343C52.7133 26.2343 50.9466 27.2676 49.1133 28.0343C47.2799 28.801 45.4466 29.1843 43.6133 29.1843C43.2466 29.1843 42.8799 29.1676 42.5133 29.1343C42.1466 29.0676 41.7966 28.9676 41.4633 28.8343C40.7966 30.401 40.1799 31.9676 39.6133 33.5343C39.0466 35.101 38.5966 36.7343 38.2633 38.4343C40.8299 36.8676 43.6133 35.7343 46.6133 35.0343C49.6133 34.3343 52.6133 33.9843 55.6133 33.9843C56.4133 33.9843 57.3299 34.1343 58.3633 34.4343C59.3966 34.701 60.2799 35.1343 61.0133 35.7343C61.7799 36.3343 62.1633 37.151 62.1633 38.1843C62.1633 39.0176 62.0799 39.4343 61.9133 39.4343C61.7466 39.4343 61.5466 39.1343 61.3133 38.5343C60.8466 37.3343 60.1133 36.5843 59.1133 36.2843C58.1133 35.951 57.0133 35.7843 55.8133 35.7843C53.7799 35.7843 52.0299 35.8843 50.5633 36.0843C49.1299 36.251 47.7966 36.5176 46.5633 36.8843C45.3633 37.251 44.1133 37.701 42.8133 38.2343C41.5133 38.7676 39.9799 39.3843 38.2133 40.0843C37.9466 41.6176 37.4466 42.7176 36.7133 43.3843C36.0133 44.051 35.3633 44.3843 34.7633 44.3843ZM43.3633 28.2843C45.1299 28.2843 46.8799 27.901 48.6133 27.1343C50.3799 26.3343 52.0633 25.2843 53.6633 23.9843C55.2966 22.651 56.7966 21.1843 58.1633 19.5843C59.5299 17.9843 60.7133 16.3676 61.7133 14.7343C62.7466 13.0676 63.5466 11.501 64.1133 10.0343C64.6799 8.5343 64.9633 7.26763 64.9633 6.2343C64.9633 5.46763 64.7799 4.86763 64.4133 4.4343C64.08 4.00097 63.5466 3.7843 62.8133 3.7843C61.5799 3.7843 60.2799 4.21763 58.9133 5.0843C57.5799 5.95097 56.2133 7.11763 54.8133 8.5843C53.4133 10.051 52.0466 11.6676 50.7133 13.4343C49.4133 15.201 48.1799 17.001 47.0133 18.8343C45.8799 20.6343 44.8633 22.351 43.9633 23.9843C43.0633 25.5843 42.3633 26.9343 41.8633 28.0343C42.0299 28.1343 42.2799 28.201 42.6133 28.2343C42.9466 28.2676 43.1966 28.2843 43.3633 28.2843ZM75.3898 46.6343C72.2565 46.6343 69.9232 45.4176 68.3898 42.9843C66.8898 40.551 66.2065 37.3176 66.3398 33.2843C65.1732 33.4176 64.2065 33.0176 63.4398 32.0843C62.7065 31.151 62.3398 29.8343 62.3398 28.1343C62.3398 26.4343 62.7732 24.4343 63.6398 22.1343C64.5398 19.8343 66.0398 17.3676 68.1398 14.7343C69.2398 13.3676 70.3065 12.1343 71.3398 11.0343C72.3732 9.90097 73.3898 8.86763 74.3898 7.9343C75.5232 6.06763 76.6898 4.45097 77.8898 3.0843C79.0898 1.71763 80.0898 0.934299 80.8898 0.7343C81.0565 0.700967 81.1898 0.6843 81.2898 0.6843C81.3898 0.650967 81.4732 0.634301 81.5398 0.634301C81.8398 0.634301 81.9898 0.717634 81.9898 0.884301C81.9898 1.01763 81.9065 1.16763 81.7398 1.3343C81.6065 1.46763 81.4565 1.56763 81.2898 1.6343C81.0565 1.70097 80.7232 1.96763 80.2898 2.4343C79.8565 2.90097 79.4398 3.3843 79.0398 3.8843C78.6398 4.3843 78.3398 4.75097 78.1398 4.9843C79.6398 3.91763 81.1065 3.15097 82.5398 2.6843C84.0065 2.21763 85.4065 1.9843 86.7398 1.9843C88.7398 1.9843 90.5898 2.41763 92.2898 3.2843C94.0232 4.15097 95.5232 5.2843 96.7898 6.6843C98.0565 8.0843 99.0565 9.61763 99.7898 11.2843C100.523 12.9176 100.907 14.5343 100.94 16.1343C101.04 19.1343 100.64 22.051 99.7398 24.8843C98.8732 27.6843 97.6898 30.301 96.1898 32.7343C94.6898 35.1343 93.0065 37.251 91.1398 39.0843C89.3065 40.9176 87.4565 42.351 85.5898 43.3843C81.6565 45.551 78.2565 46.6343 75.3898 46.6343ZM77.1898 45.0343C78.2898 45.0343 79.5065 44.8176 80.8398 44.3843C82.2065 43.9843 83.6898 43.351 85.2898 42.4843C87.2565 41.4176 89.0732 39.951 90.7398 38.0843C92.4065 36.1843 93.8565 34.0676 95.0898 31.7343C96.3232 29.401 97.2565 27.0176 97.8898 24.5843C98.5232 22.1176 98.7898 19.7843 98.6898 17.5843C98.5232 14.5176 97.8732 11.9343 96.7398 9.8343C95.6065 7.7343 94.1232 6.1343 92.2898 5.0343C90.4898 3.9343 88.5065 3.3843 86.3398 3.3843C84.5732 3.3843 82.7398 3.76763 80.8398 4.5343C78.9732 5.30097 77.1398 6.50097 75.3398 8.1343C73.3065 10.9343 71.6565 14.2843 70.3898 18.1843C69.1565 22.0843 68.4732 26.3176 68.3398 30.8843C68.4398 30.9176 68.5398 30.9343 68.6398 30.9343C68.7732 30.9343 68.9065 30.9343 69.0398 30.9343H69.5898C70.0898 30.9343 70.2732 31.001 70.1398 31.1343C69.5398 31.6343 68.9732 32.001 68.4398 32.2343C68.5065 34.501 68.8398 36.601 69.4398 38.5343C70.0398 40.501 70.9732 42.0676 72.2398 43.2343C73.5065 44.4343 75.1565 45.0343 77.1898 45.0343ZM66.3398 31.5343C66.7065 27.9676 67.4232 24.451 68.4898 20.9843C69.5898 17.4843 70.8565 14.2343 72.2898 11.2343C71.7232 11.901 71.1398 12.6176 70.5398 13.3843C69.9732 14.1176 69.4065 14.8843 68.8398 15.6843C68.0065 16.851 67.1898 18.0843 66.3898 19.3843C65.6232 20.6843 64.9898 21.9843 64.4898 23.2843C63.9898 24.5843 63.7398 25.8343 63.7398 27.0343C63.7398 28.0343 63.9565 28.951 64.3898 29.7843C64.6232 30.2176 64.9065 30.5843 65.2398 30.8843C65.6065 31.151 65.9732 31.3676 66.3398 31.5343ZM112.616 44.7343C112.116 44.7343 111.583 44.6843 111.016 44.5843C108.75 44.1176 106.883 43.051 105.416 41.3843C103.983 39.7176 102.916 37.6843 102.216 35.2843C101.55 32.851 101.216 30.2843 101.216 27.5843C101.216 25.3176 101.55 23.051 102.216 20.7843C102.916 18.5176 103.866 16.3843 105.066 14.3843C106.266 12.3843 107.65 10.6176 109.216 9.0843C110.816 7.51763 112.516 6.30097 114.316 5.4343C116.15 4.5343 118.016 4.0843 119.916 4.0843C121.55 4.0843 122.866 4.41763 123.866 5.0843C124.866 5.71763 125.6 6.56763 126.066 7.6343C126.533 8.66763 126.766 9.80097 126.766 11.0343C126.766 12.2343 126.55 13.451 126.116 14.6843C125.716 15.8843 125.133 17.001 124.366 18.0343C123.6 19.0676 122.683 19.901 121.616 20.5343C120.55 21.1343 119.366 21.4343 118.066 21.4343C117.433 21.4343 116.733 21.3343 115.966 21.1343C115.7 21.0343 115.566 20.9343 115.566 20.8343C115.566 20.6676 115.766 20.5843 116.166 20.5843C116.366 20.5843 116.516 20.601 116.616 20.6343C116.983 20.7343 117.333 20.7843 117.666 20.7843C118.6 20.7843 119.5 20.4843 120.366 19.8843C121.266 19.2843 122.066 18.501 122.766 17.5343C123.466 16.5676 124.016 15.5176 124.416 14.3843C124.816 13.2176 125.016 12.0843 125.016 10.9843C125.016 9.5843 124.633 8.35097 123.866 7.2843C123.1 6.21763 121.816 5.56763 120.016 5.3343C119.85 5.30097 119.666 5.2843 119.466 5.2843C119.266 5.25097 119.083 5.2343 118.916 5.2343C117.316 5.2343 115.75 5.66763 114.216 6.5343C112.716 7.36763 111.316 8.5343 110.016 10.0343C108.75 11.501 107.633 13.201 106.666 15.1343C105.7 17.0676 104.933 19.1176 104.366 21.2843C103.833 23.4176 103.566 25.5676 103.566 27.7343C103.566 30.3343 103.833 32.801 104.366 35.1343C104.9 37.4343 105.75 39.3676 106.916 40.9343C108.116 42.501 109.683 43.4676 111.616 43.8343C111.783 43.8676 111.95 43.8843 112.116 43.8843C112.283 43.9176 112.433 43.9343 112.566 43.9343C114.233 43.9343 115.466 43.151 116.266 41.5843C117.1 40.0176 117.516 38.101 117.516 35.8343C117.516 34.6676 117.416 33.4676 117.216 32.2343C116.083 32.3676 114.95 32.601 113.816 32.9343C112.716 33.2676 111.616 33.6676 110.516 34.1343C110.45 34.1676 110.366 34.1843 110.266 34.1843C110.1 34.1843 109.966 34.101 109.866 33.9343C109.8 33.7676 109.766 33.5676 109.766 33.3343C109.766 33.101 109.816 32.8843 109.916 32.6843C110.016 32.451 110.183 32.301 110.416 32.2343C111.616 31.7676 112.816 31.4343 114.016 31.2343C115.216 31.0343 116.433 30.9343 117.666 30.9343C119 30.9343 120.35 31.051 121.716 31.2843C123.116 31.5176 124.533 31.8676 125.966 32.3343C126.533 32.501 126.816 32.701 126.816 32.9343C126.816 33.001 126.716 33.0343 126.516 33.0343C126.35 33.0343 126.016 32.9843 125.516 32.8843C124.583 32.5843 123.633 32.3676 122.666 32.2343C121.733 32.101 120.8 32.0343 119.866 32.0343C119.533 32.0343 119.2 32.051 118.866 32.0843C118.533 32.0843 118.2 32.101 117.866 32.1343C118.566 33.9676 118.916 35.701 118.916 37.3343C118.916 39.5343 118.333 41.3176 117.166 42.6843C116 44.051 114.483 44.7343 112.616 44.7343ZM164.672 21.2003C164.281 21.1352 163.793 21.0864 163.207 21.0538C162.654 21.0213 162.117 21.005 161.596 21.005C161.01 21.005 160.391 21.0213 159.74 21.0538C159.057 21.0864 158.373 21.1189 157.689 21.1515C157.104 21.184 156.436 21.2329 155.688 21.298C154.971 21.3305 154.271 21.3794 153.588 21.4445C153.848 21.3142 154.076 21.1352 154.271 20.9073C154.499 20.6795 154.695 20.4516 154.857 20.2238C155.02 19.9633 155.167 19.6866 155.297 19.3937C155.46 18.9054 155.443 18.3195 155.248 17.6359C155.053 16.9197 154.695 16.2687 154.174 15.6827C153.686 15.0968 153.051 14.6411 152.27 14.3156C151.521 13.9575 150.691 13.8761 149.779 14.0714C148.803 14.2993 147.924 14.6411 147.143 15.0968C146.394 15.5525 145.759 16.1873 145.238 17.0011C144.75 17.7823 144.392 18.7589 144.164 19.9308C143.969 21.0701 143.92 22.4373 144.018 24.0323C144.148 26.018 144.473 27.5968 144.994 28.7687C145.515 29.9406 146.15 30.8195 146.898 31.4054C147.647 31.9913 148.461 32.3494 149.34 32.4796C150.251 32.5773 151.146 32.5773 152.025 32.4796C152.644 32.3494 153.214 32.0727 153.734 31.6495C154.158 31.2915 154.548 30.7706 154.906 30.087C155.264 29.4034 155.427 28.4594 155.395 27.255L161.352 27.0109C160.668 28.9314 159.838 30.4614 158.861 31.6007C157.885 32.7075 156.941 33.5701 156.029 34.1886C154.955 34.9047 153.881 35.393 152.807 35.6534C151.472 35.8813 150.284 35.979 149.242 35.9464C148.201 35.8813 147.257 35.7185 146.41 35.4581C145.564 35.1977 144.783 34.8722 144.066 34.4816C143.35 34.0909 142.667 33.6678 142.016 33.212C141.592 32.9191 141.12 32.4308 140.6 31.7472C140.079 31.0636 139.59 30.2498 139.135 29.3058C138.679 28.3292 138.305 27.255 138.012 26.0831C137.719 24.9113 137.605 23.7068 137.67 22.4698C137.735 21.2003 138.028 19.9308 138.549 18.6613C139.07 17.3917 139.9 16.171 141.039 14.9991C142.764 13.2413 144.604 12.102 146.557 11.5812C148.542 11.0278 150.414 10.8813 152.172 11.1417C153.93 11.3696 155.492 11.8741 156.859 12.6554C158.227 13.4366 159.187 14.283 159.74 15.1945C160.294 16.1059 160.701 16.8058 160.961 17.2941C161.254 17.7498 161.465 18.1079 161.596 18.3683C161.758 18.5962 161.889 18.7752 161.986 18.9054C162.117 19.0031 162.296 19.1495 162.523 19.3448C162.686 19.5076 162.882 19.6866 163.109 19.882C163.305 20.0447 163.533 20.24 163.793 20.4679C164.053 20.6958 164.346 20.9399 164.672 21.2003ZM191.234 21.2003C190.844 21.1352 190.355 21.0864 189.77 21.0538C189.216 21.0213 188.679 21.005 188.158 21.005C187.572 21.005 186.954 21.0213 186.303 21.0538C185.619 21.0864 184.936 21.1189 184.252 21.1515C183.666 21.184 182.999 21.2329 182.25 21.298C181.534 21.3305 180.834 21.3794 180.15 21.4445C180.411 21.3142 180.639 21.1352 180.834 20.9073C181.062 20.6795 181.257 20.4516 181.42 20.2238C181.583 19.9633 181.729 19.6866 181.859 19.3937C182.022 18.9054 182.006 18.3195 181.811 17.6359C181.615 16.9197 181.257 16.2687 180.736 15.6827C180.248 15.0968 179.613 14.6411 178.832 14.3156C178.083 13.9575 177.253 13.8761 176.342 14.0714C175.365 14.2993 174.486 14.6411 173.705 15.0968C172.956 15.5525 172.322 16.1873 171.801 17.0011C171.312 17.7823 170.954 18.7589 170.727 19.9308C170.531 21.0701 170.482 22.4373 170.58 24.0323C170.71 26.018 171.036 27.5968 171.557 28.7687C172.077 29.9406 172.712 30.8195 173.461 31.4054C174.21 31.9913 175.023 32.3494 175.902 32.4796C176.814 32.5773 177.709 32.5773 178.588 32.4796C179.206 32.3494 179.776 32.0727 180.297 31.6495C180.72 31.2915 181.111 30.7706 181.469 30.087C181.827 29.4034 181.99 28.4594 181.957 27.255L187.914 27.0109C187.23 28.9314 186.4 30.4614 185.424 31.6007C184.447 32.7075 183.503 33.5701 182.592 34.1886C181.518 34.9047 180.443 35.393 179.369 35.6534C178.035 35.8813 176.846 35.979 175.805 35.9464C174.763 35.8813 173.819 35.7185 172.973 35.4581C172.126 35.1977 171.345 34.8722 170.629 34.4816C169.913 34.0909 169.229 33.6678 168.578 33.212C168.155 32.9191 167.683 32.4308 167.162 31.7472C166.641 31.0636 166.153 30.2498 165.697 29.3058C165.242 28.3292 164.867 27.255 164.574 26.0831C164.281 24.9113 164.167 23.7068 164.232 22.4698C164.298 21.2003 164.59 19.9308 165.111 18.6613C165.632 17.3917 166.462 16.171 167.602 14.9991C169.327 13.2413 171.166 12.102 173.119 11.5812C175.105 11.0278 176.977 10.8813 178.734 11.1417C180.492 11.3696 182.055 11.8741 183.422 12.6554C184.789 13.4366 185.749 14.283 186.303 15.1945C186.856 16.1059 187.263 16.8058 187.523 17.2941C187.816 17.7498 188.028 18.1079 188.158 18.3683C188.321 18.5962 188.451 18.7752 188.549 18.9054C188.679 19.0031 188.858 19.1495 189.086 19.3448C189.249 19.5076 189.444 19.6866 189.672 19.882C189.867 20.0447 190.095 20.24 190.355 20.4679C190.616 20.6958 190.909 20.9399 191.234 21.2003ZM190.502 16.7081L199.486 16.8058C198.965 18.7915 198.575 20.4842 198.314 21.8839C198.087 23.2837 197.94 24.4555 197.875 25.3995C197.745 26.4738 197.712 27.3852 197.777 28.1339C197.875 28.8175 198.038 29.5499 198.266 30.3312C198.461 30.9822 198.754 31.7309 199.145 32.5773C199.535 33.4236 200.056 34.27 200.707 35.1163C200.316 34.9861 199.893 34.8885 199.438 34.8234C198.982 34.7583 198.559 34.7094 198.168 34.6769C197.712 34.6443 197.257 34.6443 196.801 34.6769C196.345 34.7094 195.84 34.7583 195.287 34.8234C194.831 34.8885 194.278 34.9698 193.627 35.0675C192.976 35.1652 192.292 35.2954 191.576 35.4581C192.064 33.9933 192.439 32.7238 192.699 31.6495C192.992 30.5753 193.204 29.6801 193.334 28.964C193.464 28.1176 193.546 27.434 193.578 26.9132C193.578 26.2622 193.578 25.5297 193.578 24.7159C193.578 23.8696 193.578 23.0558 193.578 22.2745C193.578 21.4933 193.562 20.8097 193.529 20.2238C193.497 19.6053 193.432 19.2146 193.334 19.0519L192.846 18.5636C192.65 18.4008 192.357 18.173 191.967 17.88C191.609 17.5545 191.12 17.1639 190.502 16.7081ZM193.969 9.1886C194.652 8.83053 195.336 8.73287 196.02 8.89563C196.736 9.05839 197.289 9.36764 197.68 9.82336C198.07 10.2791 198.201 10.8162 198.07 11.4347C197.973 12.0532 197.452 12.6554 196.508 13.2413C195.564 13.7947 194.734 13.99 194.018 13.8273C193.301 13.6645 192.797 13.3227 192.504 12.8019C192.211 12.281 192.162 11.6788 192.357 10.9952C192.553 10.2791 193.09 9.67688 193.969 9.1886ZM203.979 33.1632C204.206 32.089 204.369 31.145 204.467 30.3312C204.597 29.4848 204.695 28.785 204.76 28.2316C204.825 27.5805 204.857 27.0271 204.857 26.5714C204.825 26.018 204.792 25.367 204.76 24.6183C204.76 23.837 204.727 23.0721 204.662 22.3234C204.63 21.5421 204.581 20.8585 204.516 20.2726C204.451 19.6541 204.369 19.2146 204.271 18.9542C204.141 18.6938 203.962 18.4171 203.734 18.1241C203.279 17.5708 202.611 17.0337 201.732 16.5128C202.481 16.3501 203.116 16.2198 203.637 16.1222C204.19 15.992 204.646 15.8781 205.004 15.7804C205.395 15.6502 205.736 15.5363 206.029 15.4386C206.29 15.3409 206.599 15.2433 206.957 15.1456C207.25 15.0805 207.608 14.9991 208.031 14.9015C208.454 14.8038 208.943 14.6899 209.496 14.5597L209.35 19.0031C210.391 17.7661 211.449 16.8383 212.523 16.2198C213.598 15.6014 214.607 15.1619 215.551 14.9015C216.625 14.576 217.683 14.4132 218.725 14.4132C220.027 14.4783 221.231 14.6899 222.338 15.048C223.477 15.406 224.454 15.8292 225.268 16.3175C226.114 16.7732 226.798 17.2615 227.318 17.7823C227.839 18.3032 228.148 18.7589 228.246 19.1495C228.637 20.4191 228.734 21.5909 228.539 22.6652C228.344 23.7068 228.083 24.7322 227.758 25.7413C227.465 26.7179 227.204 27.6945 226.977 28.671C226.781 29.6476 226.863 30.7055 227.221 31.8448C227.351 32.1378 227.481 32.4308 227.611 32.7238C227.742 32.9842 227.904 33.2446 228.1 33.505C228.295 33.7654 228.523 33.977 228.783 34.1398C228.425 34.1072 228.067 34.0909 227.709 34.0909C227.351 34.0584 227.025 34.0258 226.732 33.9933C226.374 33.9607 226.049 33.9282 225.756 33.8956C225.43 33.8631 224.991 33.8468 224.438 33.8468C223.493 33.8468 222.029 33.8956 220.043 33.9933C220.336 33.3097 220.564 32.74 220.727 32.2843C220.922 31.796 221.085 31.4054 221.215 31.1124C221.345 30.7544 221.443 30.4777 221.508 30.2823C221.898 29.3383 222.126 28.2641 222.191 27.0597C222.289 25.8553 222.208 24.6346 221.947 23.3976C221.85 22.9744 221.687 22.4698 221.459 21.8839C221.231 21.298 220.922 20.7283 220.531 20.1749C220.173 19.6215 219.734 19.1495 219.213 18.7589C218.725 18.3683 218.155 18.1404 217.504 18.0753C216.853 18.0102 216.12 18.173 215.307 18.5636C214.525 18.9542 213.679 19.6704 212.768 20.712C212.084 21.5909 211.547 22.6652 211.156 23.9347C210.798 25.0089 210.554 26.3598 210.424 27.9874C210.294 29.5825 210.489 31.4542 211.01 33.6027C210.554 33.5376 210.131 33.505 209.74 33.505C209.35 33.4725 209.024 33.4399 208.764 33.4073C208.438 33.3748 208.145 33.3422 207.885 33.3097C207.592 33.3097 207.266 33.2934 206.908 33.2609C206.583 33.2609 206.176 33.2609 205.688 33.2609C205.199 33.2283 204.63 33.1958 203.979 33.1632ZM244.457 30.673C245.368 30.673 246.215 30.5753 246.996 30.38C247.647 30.2172 248.266 29.9568 248.852 29.5988C249.47 29.2081 249.877 28.6385 250.072 27.8898C250.723 28.02 251.277 28.1339 251.732 28.2316C252.188 28.2967 252.579 28.3618 252.904 28.4269C253.262 28.5245 253.572 28.5896 253.832 28.6222C254.092 28.6873 254.402 28.7524 254.76 28.8175C255.085 28.8826 255.476 28.964 255.932 29.0616C256.42 29.1267 256.99 29.2244 257.641 29.3546C257.152 29.2895 256.648 29.3383 256.127 29.5011C255.639 29.6639 255.167 29.8429 254.711 30.0382C254.19 30.2661 253.702 30.5428 253.246 30.8683C252.953 31.0636 252.611 31.3566 252.221 31.7472C251.863 32.1378 251.342 32.5122 250.658 32.8702C249.975 33.2283 249.063 33.5376 247.924 33.798C246.817 34.0258 245.385 34.1072 243.627 34.0421C241.511 33.977 239.737 33.6027 238.305 32.9191C236.872 32.2029 235.717 31.3403 234.838 30.3312C233.959 29.2895 233.324 28.1665 232.934 26.962C232.543 25.7576 232.331 24.6346 232.299 23.5929C232.266 22.5512 232.576 21.4607 233.227 20.3214C233.878 19.1821 234.789 18.1404 235.961 17.1964C237.165 16.2524 238.614 15.4874 240.307 14.9015C241.999 14.283 243.855 13.9738 245.873 13.9738C247.045 13.9738 248.119 14.1202 249.096 14.4132C250.105 14.6736 251.016 15.0317 251.83 15.4874C252.676 15.9432 253.409 16.464 254.027 17.0499C254.646 17.6033 255.167 18.173 255.59 18.7589C256.013 19.3774 256.371 20.0284 256.664 20.712C256.924 21.298 257.136 21.9653 257.299 22.714C257.462 23.4627 257.51 24.2277 257.445 25.0089C254.971 25.074 252.969 25.1228 251.439 25.1554C249.942 25.1879 248.77 25.2042 247.924 25.2042H245.727H244.066C243.48 25.2042 242.715 25.2205 241.771 25.2531C240.827 25.2856 239.672 25.3344 238.305 25.3995C238.467 26.7016 238.874 27.7107 239.525 28.4269C240.209 29.1105 240.925 29.6313 241.674 29.9894C242.52 30.38 243.448 30.6079 244.457 30.673ZM240.062 21.8839C241.104 21.949 241.967 21.9978 242.65 22.0304C243.367 22.0629 243.952 22.0955 244.408 22.1281C244.896 22.1606 245.287 22.1769 245.58 22.1769H246.801C247.615 22.1769 249.128 22.1281 251.342 22.0304C251.244 20.5981 250.935 19.5076 250.414 18.7589C249.926 18.0102 249.405 17.4568 248.852 17.0988C248.201 16.7081 247.484 16.4803 246.703 16.4152C244.587 16.4477 243.008 16.8872 241.967 17.7335C240.958 18.5799 240.323 19.9633 240.062 21.8839ZM275.414 20.6144C276.684 20.6469 277.839 20.6632 278.881 20.6632C279.955 20.6632 280.883 20.6632 281.664 20.6632C282.576 20.6632 283.406 20.6469 284.154 20.6144C284.936 20.6144 285.928 20.5818 287.133 20.5167C288.174 20.4842 289.477 20.4353 291.039 20.3702C292.634 20.3051 294.571 20.2238 296.85 20.1261L296.605 25.1066C294.783 24.9764 293.253 24.895 292.016 24.8624C290.811 24.7973 289.835 24.7485 289.086 24.7159C288.207 24.6834 287.491 24.6834 286.938 24.7159C286.384 24.7485 285.603 24.7973 284.594 24.8624C283.747 24.9275 282.592 25.0089 281.127 25.1066C279.695 25.1717 277.872 25.2856 275.658 25.4484L275.414 20.6144ZM311.107 11.63C311.661 11.7277 312.23 11.809 312.816 11.8741C313.37 11.9067 313.874 11.9392 314.33 11.9718C314.851 12.0044 315.355 12.0206 315.844 12.0206C316.332 12.0206 316.885 12.0044 317.504 11.9718C318.025 11.9392 318.643 11.8904 319.359 11.8253C320.108 11.7602 320.922 11.6626 321.801 11.5323C321.28 11.8253 320.873 12.1346 320.58 12.4601C320.287 12.7856 320.059 13.0786 319.896 13.339C319.701 13.6645 319.571 13.9575 319.506 14.2179C319.441 14.4783 319.457 15.0154 319.555 15.8292C319.652 16.643 319.783 17.587 319.945 18.6613C320.141 19.7355 320.352 20.8585 320.58 22.0304C320.808 23.2023 321.036 24.2765 321.264 25.2531C321.524 26.2296 321.752 27.0434 321.947 27.6945C322.175 28.3455 322.354 28.6547 322.484 28.6222C322.615 28.6222 322.81 28.2967 323.07 27.6456C323.363 26.9946 323.689 26.1971 324.047 25.2531C324.405 24.2765 324.779 23.2185 325.17 22.0792C325.561 20.9073 325.902 19.8169 326.195 18.8077C326.488 17.7986 326.716 16.9523 326.879 16.2687C327.074 15.5525 327.156 15.1294 327.123 14.9991C327.025 14.8689 326.911 14.6899 326.781 14.462C326.553 14.104 326.049 13.4855 325.268 12.6066C326.212 12.6717 327.025 12.7368 327.709 12.8019C328.393 12.8344 328.946 12.8833 329.369 12.9484C329.857 13.0135 330.248 13.0623 330.541 13.0948C330.834 13.1274 331.257 13.1274 331.811 13.0948C332.266 13.0948 332.868 13.0786 333.617 13.046C334.398 12.9809 335.359 12.8833 336.498 12.7531C335.652 13.2413 334.952 13.6808 334.398 14.0714C333.878 14.4295 333.471 14.7387 333.178 14.9991C332.82 15.3247 332.559 15.6014 332.396 15.8292C332.169 16.2524 331.762 17.2615 331.176 18.8566C330.915 19.5402 330.59 20.3865 330.199 21.3956C329.841 22.4047 329.402 23.6254 328.881 25.0577C328.393 26.4575 327.807 28.1014 327.123 29.9894C326.439 31.8774 325.674 34.0421 324.828 36.4835L320.092 36.9718C319.473 34.921 318.969 33.212 318.578 31.8448C318.22 30.4451 317.927 29.3221 317.699 28.4757C317.439 27.4991 317.243 26.7342 317.113 26.1808C316.951 25.5623 316.755 24.6671 316.527 23.4952C316.299 22.2908 316.072 21.0701 315.844 19.8331C315.616 18.5962 315.388 17.4894 315.16 16.5128C314.932 15.5037 314.753 14.8852 314.623 14.6573C314.493 14.4946 314.265 14.2667 313.939 13.9738C313.679 13.7133 313.321 13.4041 312.865 13.046C312.41 12.6554 311.824 12.1834 311.107 11.63ZM334.008 16.7081L342.992 16.8058C342.471 18.7915 342.081 20.4842 341.82 21.8839C341.592 23.2837 341.446 24.4555 341.381 25.3995C341.251 26.4738 341.218 27.3852 341.283 28.1339C341.381 28.8175 341.544 29.5499 341.771 30.3312C341.967 30.9822 342.26 31.7309 342.65 32.5773C343.041 33.4236 343.562 34.27 344.213 35.1163C343.822 34.9861 343.399 34.8885 342.943 34.8234C342.488 34.7583 342.064 34.7094 341.674 34.6769C341.218 34.6443 340.762 34.6443 340.307 34.6769C339.851 34.7094 339.346 34.7583 338.793 34.8234C338.337 34.8885 337.784 34.9698 337.133 35.0675C336.482 35.1652 335.798 35.2954 335.082 35.4581C335.57 33.9933 335.945 32.7238 336.205 31.6495C336.498 30.5753 336.71 29.6801 336.84 28.964C336.97 28.1176 337.051 27.434 337.084 26.9132C337.084 26.2622 337.084 25.5297 337.084 24.7159C337.084 23.8696 337.084 23.0558 337.084 22.2745C337.084 21.4933 337.068 20.8097 337.035 20.2238C337.003 19.6053 336.938 19.2146 336.84 19.0519L336.352 18.5636C336.156 18.4008 335.863 18.173 335.473 17.88C335.115 17.5545 334.626 17.1639 334.008 16.7081ZM337.475 9.1886C338.158 8.83053 338.842 8.73287 339.525 8.89563C340.242 9.05839 340.795 9.36764 341.186 9.82336C341.576 10.2791 341.706 10.8162 341.576 11.4347C341.479 12.0532 340.958 12.6554 340.014 13.2413C339.07 13.7947 338.24 13.99 337.523 13.8273C336.807 13.6645 336.303 13.3227 336.01 12.8019C335.717 12.281 335.668 11.6788 335.863 10.9952C336.059 10.2791 336.596 9.67688 337.475 9.1886ZM345.971 4.25696C346.719 4.45227 347.403 4.59875 348.021 4.69641C348.673 4.76152 349.226 4.81034 349.682 4.8429C350.235 4.87545 350.74 4.89172 351.195 4.89172C351.651 4.89172 352.221 4.85917 352.904 4.79407C354.109 4.69641 355.818 4.45227 358.031 4.06165C357.673 4.32206 357.331 4.58248 357.006 4.8429C356.713 5.07076 356.452 5.29862 356.225 5.52649L355.492 6.25891C355.069 6.84485 354.646 7.83769 354.223 9.23743C353.865 10.4419 353.474 12.1346 353.051 14.3156C352.66 16.4965 352.302 19.3937 351.977 23.007C353.572 21.4445 355.069 20.2726 356.469 19.4913C357.901 18.6775 359.154 18.0916 360.229 17.7335C361.498 17.3429 362.654 17.1313 363.695 17.0988C365.03 17.1964 366.186 17.4731 367.162 17.9288C368.171 18.352 369.018 18.8728 369.701 19.4913C370.417 20.0773 370.987 20.6958 371.41 21.3468C371.866 21.9653 372.208 22.5187 372.436 23.007C372.566 23.3325 372.663 23.9347 372.729 24.8136C372.826 25.66 372.842 26.6365 372.777 27.7433C372.712 28.8501 372.533 30.0219 372.24 31.2589C371.98 32.4633 371.54 33.5864 370.922 34.6281C370.336 35.6372 369.555 36.4835 368.578 37.1671C367.634 37.8507 366.446 38.2251 365.014 38.2902C363.354 38.2902 361.742 38.0948 360.18 37.7042C358.845 37.3787 357.429 36.809 355.932 35.9952C354.467 35.1489 353.214 33.9445 352.172 32.382C352.172 32.7726 352.172 33.1632 352.172 33.5538C352.172 33.9119 352.188 34.2212 352.221 34.4816C352.253 34.8396 352.286 35.1489 352.318 35.4093C352.351 35.7023 352.432 36.0115 352.562 36.337C352.66 36.5975 352.807 36.923 353.002 37.3136C353.23 37.6717 353.523 38.0297 353.881 38.3878C353.523 38.3553 353.165 38.339 352.807 38.339C352.449 38.3064 352.09 38.3064 351.732 38.339C351.342 38.3715 350.951 38.4041 350.561 38.4366C350.17 38.4692 349.763 38.518 349.34 38.5831C348.982 38.6482 348.559 38.7296 348.07 38.8273C347.582 38.9249 347.077 39.0389 346.557 39.1691C346.654 38.8761 346.736 38.4529 346.801 37.8995C346.866 37.3136 346.931 36.6788 346.996 35.9952C347.094 35.2791 347.159 34.5304 347.191 33.7491C347.257 32.9679 347.322 32.1866 347.387 31.4054C347.517 29.615 347.631 27.6619 347.729 25.546C347.826 22.2583 347.842 19.1984 347.777 16.3663C347.745 15.1619 347.68 13.9412 347.582 12.7042C347.517 11.4672 347.419 10.3116 347.289 9.23743C347.159 8.13066 346.98 7.15409 346.752 6.30774C346.557 5.42883 346.296 4.74524 345.971 4.25696ZM352.318 28.0363C352.839 28.9803 353.393 29.7941 353.979 30.4777C354.564 31.1287 355.15 31.6821 355.736 32.1378C356.322 32.5935 356.892 32.9516 357.445 33.212C358.031 33.4725 358.585 33.6678 359.105 33.798C360.31 34.1235 361.498 34.156 362.67 33.8956C363.842 33.5701 364.753 32.9191 365.404 31.9425C366.055 30.9659 366.56 29.8592 366.918 28.6222C367.081 28.0363 367.178 27.2876 367.211 26.3761C367.276 25.4646 367.178 24.5857 366.918 23.7394C366.69 22.8605 366.267 22.0955 365.648 21.4445C365.03 20.7609 364.135 20.354 362.963 20.2238C362.149 20.2238 361.205 20.4516 360.131 20.9073C359.187 21.298 358.064 21.949 356.762 22.8605C355.46 23.7394 353.979 25.0577 352.318 26.8156V28.0363ZM387.768 30.673C388.679 30.673 389.525 30.5753 390.307 30.38C390.958 30.2172 391.576 29.9568 392.162 29.5988C392.781 29.2081 393.188 28.6385 393.383 27.8898C394.034 28.02 394.587 28.1339 395.043 28.2316C395.499 28.2967 395.889 28.3618 396.215 28.4269C396.573 28.5245 396.882 28.5896 397.143 28.6222C397.403 28.6873 397.712 28.7524 398.07 28.8175C398.396 28.8826 398.786 28.964 399.242 29.0616C399.73 29.1267 400.3 29.2244 400.951 29.3546C400.463 29.2895 399.958 29.3383 399.438 29.5011C398.949 29.6639 398.477 29.8429 398.021 30.0382C397.501 30.2661 397.012 30.5428 396.557 30.8683C396.264 31.0636 395.922 31.3566 395.531 31.7472C395.173 32.1378 394.652 32.5122 393.969 32.8702C393.285 33.2283 392.374 33.5376 391.234 33.798C390.128 34.0258 388.695 34.1072 386.938 34.0421C384.822 33.977 383.048 33.6027 381.615 32.9191C380.183 32.2029 379.027 31.3403 378.148 30.3312C377.27 29.2895 376.635 28.1665 376.244 26.962C375.854 25.7576 375.642 24.6346 375.609 23.5929C375.577 22.5512 375.886 21.4607 376.537 20.3214C377.188 19.1821 378.1 18.1404 379.271 17.1964C380.476 16.2524 381.924 15.4874 383.617 14.9015C385.31 14.283 387.165 13.9738 389.184 13.9738C390.355 13.9738 391.43 14.1202 392.406 14.4132C393.415 14.6736 394.327 15.0317 395.141 15.4874C395.987 15.9432 396.719 16.464 397.338 17.0499C397.956 17.6033 398.477 18.173 398.9 18.7589C399.324 19.3774 399.682 20.0284 399.975 20.712C400.235 21.298 400.447 21.9653 400.609 22.714C400.772 23.4627 400.821 24.2277 400.756 25.0089C398.282 25.074 396.28 25.1228 394.75 25.1554C393.253 25.1879 392.081 25.2042 391.234 25.2042H389.037H387.377C386.791 25.2042 386.026 25.2205 385.082 25.2531C384.138 25.2856 382.982 25.3344 381.615 25.3995C381.778 26.7016 382.185 27.7107 382.836 28.4269C383.52 29.1105 384.236 29.6313 384.984 29.9894C385.831 30.38 386.758 30.6079 387.768 30.673ZM383.373 21.8839C384.415 21.949 385.277 21.9978 385.961 22.0304C386.677 22.0629 387.263 22.0955 387.719 22.1281C388.207 22.1606 388.598 22.1769 388.891 22.1769H390.111C390.925 22.1769 392.439 22.1281 394.652 22.0304C394.555 20.5981 394.245 19.5076 393.725 18.7589C393.236 18.0102 392.715 17.4568 392.162 17.0988C391.511 16.7081 390.795 16.4803 390.014 16.4152C387.898 16.4477 386.319 16.8872 385.277 17.7335C384.268 18.5799 383.633 19.9633 383.373 21.8839ZM424.242 10.6534C423.949 11.3696 423.689 12.0206 423.461 12.6066C423.266 13.1925 423.087 13.7133 422.924 14.1691C422.761 14.6899 422.615 15.1456 422.484 15.5363C422.354 15.992 422.208 16.5128 422.045 17.0988C421.882 17.6196 421.671 18.2706 421.41 19.0519C421.182 19.8006 420.906 20.6958 420.58 21.7374C420.32 20.1749 419.848 18.9379 419.164 18.0265C418.48 17.0825 417.781 16.3501 417.064 15.8292C416.218 15.2433 415.307 14.8201 414.33 14.5597C412.572 14.2667 411.303 14.2993 410.521 14.6573C409.74 15.0154 409.219 15.4712 408.959 16.0245C408.829 16.2524 408.682 16.5454 408.52 16.9034C408.389 17.229 408.275 17.5708 408.178 17.9288C408.113 18.2869 408.096 18.645 408.129 19.0031C408.161 19.3611 408.308 19.6541 408.568 19.882C408.731 20.0447 409.154 20.2726 409.838 20.5656C410.521 20.826 411.335 21.1352 412.279 21.4933C413.256 21.8188 414.281 22.1769 415.355 22.5675C416.462 22.9581 417.504 23.3488 418.48 23.7394C419.457 24.13 420.303 24.5206 421.02 24.9113C421.736 25.3019 422.208 25.66 422.436 25.9855C422.631 26.311 422.842 26.7504 423.07 27.3038C423.331 27.8247 423.51 28.4106 423.607 29.0616C423.738 29.6801 423.77 30.3312 423.705 31.0148C423.673 31.6658 423.493 32.3169 423.168 32.9679C422.842 33.6189 422.322 34.2212 421.605 34.7745C420.922 35.3279 419.994 35.7837 418.822 36.1417C417.455 36.5649 416.137 36.6788 414.867 36.4835C413.598 36.2882 412.426 35.9952 411.352 35.6046C410.31 35.214 409.398 34.8396 408.617 34.4816C407.836 34.0909 407.283 33.9282 406.957 33.9933C406.599 34.0584 406.192 34.2374 405.736 34.5304C405.281 34.8234 404.841 35.1326 404.418 35.4581C404.027 35.7511 403.686 36.0278 403.393 36.2882C403.1 36.5161 402.953 36.5975 402.953 36.5323C402.953 36.4672 403.002 36.2719 403.1 35.9464C403.23 35.6209 403.36 35.2303 403.49 34.7745C403.653 34.2863 403.799 33.7654 403.93 33.212C404.092 32.6261 404.206 32.0727 404.271 31.5519C404.337 31.1287 404.418 30.6079 404.516 29.9894C404.581 29.436 404.662 28.7687 404.76 27.9874C404.89 27.1736 405.036 26.1971 405.199 25.0577C405.362 25.9041 405.59 26.6365 405.883 27.255C406.208 27.8735 406.518 28.4106 406.811 28.8663C407.169 29.3872 407.51 29.8266 407.836 30.1847C408.324 30.6404 408.894 31.0636 409.545 31.4542C410.229 31.8448 410.912 32.1866 411.596 32.4796C412.279 32.74 412.93 32.9028 413.549 32.9679C414.167 33.033 414.688 32.9679 415.111 32.7726C415.535 32.5773 415.893 32.2192 416.186 31.6984C416.511 31.1775 416.739 30.6079 416.869 29.9894C416.999 29.3709 417.048 28.785 417.016 28.2316C416.983 27.6456 416.837 27.1736 416.576 26.8156C416.381 26.5877 415.925 26.2947 415.209 25.9366C414.525 25.5786 413.695 25.1879 412.719 24.7648C411.775 24.3416 410.766 23.9021 409.691 23.4464C408.65 22.9907 407.657 22.535 406.713 22.0792C405.801 21.5909 405.036 21.1352 404.418 20.712C403.832 20.2563 403.507 19.8494 403.441 19.4913C403.376 18.9705 403.327 18.4008 403.295 17.7823C403.262 17.1313 403.295 16.4965 403.393 15.8781C403.523 15.227 403.751 14.6085 404.076 14.0226C404.434 13.4366 404.955 12.9484 405.639 12.5577C406.094 12.2973 406.697 12.102 407.445 11.9718C408.194 11.8416 409.024 11.7765 409.936 11.7765C410.847 11.7439 411.791 11.7765 412.768 11.8741C413.744 11.9392 414.672 12.0369 415.551 12.1671C416.462 12.2648 417.276 12.395 417.992 12.5577C418.741 12.7205 419.311 12.867 419.701 12.9972C420.157 13.16 420.645 13.1762 421.166 13.046C421.622 12.9484 422.11 12.7368 422.631 12.4113C423.152 12.0857 423.689 11.4998 424.242 10.6534Z" fill="#10375C"/>
</svg>
