<svg width="425" height="57" viewBox="0 0 425 57" fill="none" xmlns="http://www.w3.org/2000/svg">
<path d="M18.05 56.75C16.5167 56.75 15.0333 56.1167 13.6 54.85C12.2 53.5833 11.0167 51.75 10.05 49.35C9.11667 46.95 8.56667 44.05 8.4 40.65C7.36667 40.75 6.41667 40.8 5.55 40.8C3.61667 40.8 2.2 40.55 1.3 40.05C0.433333 39.55 -7.07805e-08 38.9 -7.07805e-08 38.1C-7.07805e-08 37.3 0.383333 36.4167 1.15 35.45C1.91667 34.4833 2.98333 33.5167 4.35 32.55C5.71667 31.55 7.31667 30.65 9.15 29.85C9.78333 26.45 10.8 22.7833 12.2 18.85C13.6333 14.8833 15.55 10.6833 17.95 6.25C18.1833 5.81667 18.5333 5.6 19 5.6C19.3 5.6 19.5667 5.7 19.8 5.9C20.0333 6.1 20.15 6.36666 20.15 6.7C20.15 6.86666 20.1 7.08333 20 7.35C17.8667 11.65 16.0833 15.6 14.65 19.2C13.25 22.7667 12.15 26.0333 11.35 29C12.85 28.4333 14.45 27.9667 16.15 27.6C17.85 27.2333 19.5833 27.0167 21.35 26.95C21.8167 26.95 22.05 27.0167 22.05 27.15C22.05 27.2833 21.8833 27.4167 21.55 27.55C21.25 27.65 20.7333 27.7167 20 27.75C18.3667 27.85 16.8 28.0833 15.3 28.45C13.8333 28.7833 12.45 29.2 11.15 29.7C10.65 31.6333 10.2667 33.4333 10 35.1C9.73333 36.7333 9.56667 38.25 9.5 39.65C12.9333 38.9167 16.05 37.85 18.85 36.45C21.6833 35.0167 24.1833 33.3667 26.35 31.5C28.5167 29.6333 30.3333 27.7 31.8 25.7C32.7333 24.4333 33.4 23.3167 33.8 22.35C34.2333 21.35 34.45 20.4833 34.45 19.75C34.45 18.6833 34.1167 17.85 33.45 17.25C32.7833 16.6167 31.9 16.1667 30.8 15.9C29.7 15.6 28.5 15.45 27.2 15.45C25.8333 15.45 24.45 15.5833 23.05 15.85C21.65 16.0833 20.3833 16.4167 19.25 16.85C18.9833 16.9167 18.8 16.95 18.7 16.95C18.2667 16.95 18.05 16.8 18.05 16.5C18.05 16.2 18.2333 15.9667 18.6 15.8C22.7 13.4667 25.6167 11.35 27.35 9.45C29.0833 7.55 29.95 5.95 29.95 4.65C29.95 3.51666 29.4167 2.65 28.35 2.05C27.3167 1.41666 25.95 1.1 24.25 1.1C22.9167 1.1 21.4167 1.31667 19.75 1.75C18.0833 2.18333 16.3667 2.88333 14.6 3.85C13.1333 4.65 11.8 5.6 10.6 6.7C9.43333 7.76666 8.43333 8.88333 7.6 10.05C6.8 11.1833 6.2 12.2667 5.8 13.3C5.4 14.3 5.25 15.15 5.35 15.85C5.35 15.9167 5.35 16 5.35 16.1C5.38333 16.1667 5.4 16.2333 5.4 16.3C5.4 17.1333 5.15 17.55 4.65 17.55C4.41667 17.55 4.16667 17.3833 3.9 17.05C3.66667 16.7167 3.55 16.2167 3.55 15.55C3.55 14.55 3.85 13.4833 4.45 12.35C5.08333 11.2167 5.91667 10.0833 6.95 8.95C8.01667 7.78333 9.2 6.7 10.5 5.7C11.8 4.66666 13.15 3.78333 14.55 3.05C16.35 2.08333 18.1167 1.36666 19.85 0.899998C21.6167 0.433331 23.2333 0.199998 24.7 0.199998C26.7333 0.199998 28.3833 0.599998 29.65 1.4C30.9167 2.2 31.55 3.31667 31.55 4.75C31.55 6.08333 30.9 7.63333 29.6 9.4C28.3 11.1667 26.1167 13.1167 23.05 15.25C24.0833 15.0833 25.05 14.9667 25.95 14.9C26.85 14.8 27.6833 14.75 28.45 14.75C31.3167 14.75 33.3833 15.2333 34.65 16.2C35.95 17.1333 36.6 18.35 36.6 19.85C36.6 20.95 36.2833 22.15 35.65 23.45C35.05 24.7167 34.2 26.0333 33.1 27.4C31.5 29.3667 29.4833 31.2667 27.05 33.1C24.65 34.9333 21.95 36.5167 18.95 37.85C15.9833 39.1833 12.8167 40.0833 9.45 40.55C9.38333 43.5167 9.65 45.9667 10.25 47.9C10.8833 49.8333 11.6833 51.3333 12.65 52.4C13.6167 53.5 14.5833 54.2667 15.55 54.7C16.5167 55.1667 17.3167 55.4 17.95 55.4C18.4167 55.4 18.7333 55.3167 18.9 55.15C19.0333 54.9833 19.2333 54.9 19.5 54.9C19.7667 54.9 20.0167 55 20.25 55.2C20.4833 55.4 20.6 55.6167 20.6 55.85C20.6 56.05 20.4833 56.2 20.25 56.3C19.5167 56.6 18.7833 56.75 18.05 56.75ZM5.75 40.15C6.11667 40.15 6.51667 40.1167 6.95 40.05C7.38333 40.0167 7.85 39.9667 8.35 39.9C8.31667 38.5 8.35 37.0333 8.45 35.5C8.55 33.9667 8.73333 32.3667 9 30.7C6.86667 31.8 5.18333 33.0333 3.95 34.4C2.71667 35.7333 2.1 36.9167 2.1 37.95C2.1 38.5833 2.4 39.1 3 39.5C3.6 39.9333 4.51667 40.15 5.75 40.15ZM34.7633 43.85C34.3966 43.85 34.0966 43.7333 33.8633 43.5C33.5966 43.3 33.4633 43.0167 33.4633 42.65C33.4633 42.1833 33.6966 41.6333 34.1633 41C34.5966 40.3667 35.3299 39.6667 36.3633 38.9C36.5299 38.4667 36.6466 38.0667 36.7133 37.7C36.8133 37.3333 36.8966 36.9333 36.9633 36.5C37.1966 35.0333 37.6133 33.55 38.2133 32.05C38.8133 30.5167 39.4133 29.0833 40.0133 27.75C39.3799 27.6167 38.7466 27.1167 38.1133 26.25C37.5133 25.3833 37.2133 24.4667 37.2133 23.5C37.2133 23.2667 37.2633 22.8833 37.3633 22.35C37.4633 21.7833 37.6299 21.5 37.8633 21.5C38.1633 21.5 38.3133 21.75 38.3133 22.25C38.3133 22.75 38.3133 23.1 38.3133 23.3C38.3133 24 38.5133 24.7 38.9133 25.4C39.3133 26.1 39.7966 26.6 40.3633 26.9C40.9299 25.6667 41.6466 24.2167 42.5133 22.55C43.3799 20.85 44.3633 19.0667 45.4633 17.2C46.5633 15.3 47.7633 13.45 49.0633 11.65C50.3633 9.85 51.7299 8.21667 53.1633 6.75C54.6299 5.28333 56.1466 4.11666 57.7133 3.25C59.2799 2.38333 60.8799 1.95 62.5133 1.95C63.8466 1.95 64.8133 2.3 65.4133 3C66.0133 3.66667 66.3133 4.58333 66.3133 5.75C66.3133 6.98333 66.0133 8.4 65.4133 10C64.8133 11.6 63.9633 13.2667 62.8633 15C61.7966 16.7 60.5466 18.3667 59.1133 20C57.6799 21.6 56.1133 23.0667 54.4133 24.4C52.7133 25.7 50.9466 26.7333 49.1133 27.5C47.2799 28.2667 45.4466 28.65 43.6133 28.65C43.2466 28.65 42.8799 28.6333 42.5133 28.6C42.1466 28.5333 41.7966 28.4333 41.4633 28.3C40.7966 29.8667 40.1799 31.4333 39.6133 33C39.0466 34.5667 38.5966 36.2 38.2633 37.9C40.8299 36.3333 43.6133 35.2 46.6133 34.5C49.6133 33.8 52.6133 33.45 55.6133 33.45C56.4133 33.45 57.3299 33.6 58.3633 33.9C59.3966 34.1667 60.2799 34.6 61.0133 35.2C61.7799 35.8 62.1633 36.6167 62.1633 37.65C62.1633 38.4833 62.0799 38.9 61.9133 38.9C61.7466 38.9 61.5466 38.6 61.3133 38C60.8466 36.8 60.1133 36.05 59.1133 35.75C58.1133 35.4167 57.0133 35.25 55.8133 35.25C53.7799 35.25 52.0299 35.35 50.5633 35.55C49.1299 35.7167 47.7966 35.9833 46.5633 36.35C45.3633 36.7167 44.1133 37.1667 42.8133 37.7C41.5133 38.2333 39.9799 38.85 38.2133 39.55C37.9466 41.0833 37.4466 42.1833 36.7133 42.85C36.0133 43.5167 35.3633 43.85 34.7633 43.85ZM43.3633 27.75C45.1299 27.75 46.8799 27.3667 48.6133 26.6C50.3799 25.8 52.0633 24.75 53.6633 23.45C55.2966 22.1167 56.7966 20.65 58.1633 19.05C59.5299 17.45 60.7133 15.8333 61.7133 14.2C62.7466 12.5333 63.5466 10.9667 64.1133 9.5C64.6799 8 64.9633 6.73333 64.9633 5.7C64.9633 4.93333 64.7799 4.33333 64.4133 3.9C64.08 3.46666 63.5466 3.25 62.8133 3.25C61.5799 3.25 60.2799 3.68333 58.9133 4.55C57.5799 5.41667 56.2133 6.58333 54.8133 8.05C53.4133 9.51667 52.0466 11.1333 50.7133 12.9C49.4133 14.6667 48.1799 16.4667 47.0133 18.3C45.8799 20.1 44.8633 21.8167 43.9633 23.45C43.0633 25.05 42.3633 26.4 41.8633 27.5C42.0299 27.6 42.2799 27.6667 42.6133 27.7C42.9466 27.7333 43.1966 27.75 43.3633 27.75ZM75.3898 46.1C72.2565 46.1 69.9232 44.8833 68.3898 42.45C66.8898 40.0167 66.2065 36.7833 66.3398 32.75C65.1732 32.8833 64.2065 32.4833 63.4398 31.55C62.7065 30.6167 62.3398 29.3 62.3398 27.6C62.3398 25.9 62.7732 23.9 63.6398 21.6C64.5398 19.3 66.0398 16.8333 68.1398 14.2C69.2398 12.8333 70.3065 11.6 71.3398 10.5C72.3732 9.36666 73.3898 8.33333 74.3898 7.4C75.5232 5.53333 76.6898 3.91666 77.8898 2.55C79.0898 1.18333 80.0898 0.399997 80.8898 0.199998C81.0565 0.166665 81.1898 0.149999 81.2898 0.149999C81.3898 0.116666 81.4732 0.0999992 81.5398 0.0999992C81.8398 0.0999992 81.9898 0.183332 81.9898 0.349999C81.9898 0.483333 81.9065 0.633333 81.7398 0.799999C81.6065 0.933333 81.4565 1.03333 81.2898 1.1C81.0565 1.16666 80.7232 1.43333 80.2898 1.9C79.8565 2.36667 79.4398 2.85 79.0398 3.35C78.6398 3.85 78.3398 4.21667 78.1398 4.45C79.6398 3.38333 81.1065 2.61667 82.5398 2.15C84.0065 1.68333 85.4065 1.45 86.7398 1.45C88.7398 1.45 90.5898 1.88333 92.2898 2.75C94.0232 3.61667 95.5232 4.75 96.7898 6.15C98.0565 7.55 99.0565 9.08333 99.7898 10.75C100.523 12.3833 100.907 14 100.94 15.6C101.04 18.6 100.64 21.5167 99.7398 24.35C98.8732 27.15 97.6898 29.7667 96.1898 32.2C94.6898 34.6 93.0065 36.7167 91.1398 38.55C89.3065 40.3833 87.4565 41.8167 85.5898 42.85C81.6565 45.0167 78.2565 46.1 75.3898 46.1ZM77.1898 44.5C78.2898 44.5 79.5065 44.2833 80.8398 43.85C82.2065 43.45 83.6898 42.8167 85.2898 41.95C87.2565 40.8833 89.0732 39.4167 90.7398 37.55C92.4065 35.65 93.8565 33.5333 95.0898 31.2C96.3232 28.8667 97.2565 26.4833 97.8898 24.05C98.5232 21.5833 98.7898 19.25 98.6898 17.05C98.5232 13.9833 97.8732 11.4 96.7398 9.3C95.6065 7.2 94.1232 5.6 92.2898 4.5C90.4898 3.4 88.5065 2.85 86.3398 2.85C84.5732 2.85 82.7398 3.23333 80.8398 4C78.9732 4.76667 77.1398 5.96667 75.3398 7.6C73.3065 10.4 71.6565 13.75 70.3898 17.65C69.1565 21.55 68.4732 25.7833 68.3398 30.35C68.4398 30.3833 68.5398 30.4 68.6398 30.4C68.7732 30.4 68.9065 30.4 69.0398 30.4H69.5898C70.0898 30.4 70.2732 30.4667 70.1398 30.6C69.5398 31.1 68.9732 31.4667 68.4398 31.7C68.5065 33.9667 68.8398 36.0667 69.4398 38C70.0398 39.9667 70.9732 41.5333 72.2398 42.7C73.5065 43.9 75.1565 44.5 77.1898 44.5ZM66.3398 31C66.7065 27.4333 67.4232 23.9167 68.4898 20.45C69.5898 16.95 70.8565 13.7 72.2898 10.7C71.7232 11.3667 71.1398 12.0833 70.5398 12.85C69.9732 13.5833 69.4065 14.35 68.8398 15.15C68.0065 16.3167 67.1898 17.55 66.3898 18.85C65.6232 20.15 64.9898 21.45 64.4898 22.75C63.9898 24.05 63.7398 25.3 63.7398 26.5C63.7398 27.5 63.9565 28.4167 64.3898 29.25C64.6232 29.6833 64.9065 30.05 65.2398 30.35C65.6065 30.6167 65.9732 30.8333 66.3398 31ZM112.616 44.2C112.116 44.2 111.583 44.15 111.016 44.05C108.75 43.5833 106.883 42.5167 105.416 40.85C103.983 39.1833 102.916 37.15 102.216 34.75C101.55 32.3167 101.216 29.75 101.216 27.05C101.216 24.7833 101.55 22.5167 102.216 20.25C102.916 17.9833 103.866 15.85 105.066 13.85C106.266 11.85 107.65 10.0833 109.216 8.55C110.816 6.98333 112.516 5.76666 114.316 4.9C116.15 4 118.016 3.55 119.916 3.55C121.55 3.55 122.866 3.88333 123.866 4.55C124.866 5.18333 125.6 6.03333 126.066 7.1C126.533 8.13333 126.766 9.26667 126.766 10.5C126.766 11.7 126.55 12.9167 126.116 14.15C125.716 15.35 125.133 16.4667 124.366 17.5C123.6 18.5333 122.683 19.3667 121.616 20C120.55 20.6 119.366 20.9 118.066 20.9C117.433 20.9 116.733 20.8 115.966 20.6C115.7 20.5 115.566 20.4 115.566 20.3C115.566 20.1333 115.766 20.05 116.166 20.05C116.366 20.05 116.516 20.0667 116.616 20.1C116.983 20.2 117.333 20.25 117.666 20.25C118.6 20.25 119.5 19.95 120.366 19.35C121.266 18.75 122.066 17.9667 122.766 17C123.466 16.0333 124.016 14.9833 124.416 13.85C124.816 12.6833 125.016 11.55 125.016 10.45C125.016 9.05 124.633 7.81666 123.866 6.75C123.1 5.68333 121.816 5.03333 120.016 4.8C119.85 4.76667 119.666 4.75 119.466 4.75C119.266 4.71667 119.083 4.7 118.916 4.7C117.316 4.7 115.75 5.13333 114.216 6C112.716 6.83333 111.316 8 110.016 9.5C108.75 10.9667 107.633 12.6667 106.666 14.6C105.7 16.5333 104.933 18.5833 104.366 20.75C103.833 22.8833 103.566 25.0333 103.566 27.2C103.566 29.8 103.833 32.2667 104.366 34.6C104.9 36.9 105.75 38.8333 106.916 40.4C108.116 41.9667 109.683 42.9333 111.616 43.3C111.783 43.3333 111.95 43.35 112.116 43.35C112.283 43.3833 112.433 43.4 112.566 43.4C114.233 43.4 115.466 42.6167 116.266 41.05C117.1 39.4833 117.516 37.5667 117.516 35.3C117.516 34.1333 117.416 32.9333 117.216 31.7C116.083 31.8333 114.95 32.0667 113.816 32.4C112.716 32.7333 111.616 33.1333 110.516 33.6C110.45 33.6333 110.366 33.65 110.266 33.65C110.1 33.65 109.966 33.5667 109.866 33.4C109.8 33.2333 109.766 33.0333 109.766 32.8C109.766 32.5667 109.816 32.35 109.916 32.15C110.016 31.9167 110.183 31.7667 110.416 31.7C111.616 31.2333 112.816 30.9 114.016 30.7C115.216 30.5 116.433 30.4 117.666 30.4C119 30.4 120.35 30.5167 121.716 30.75C123.116 30.9833 124.533 31.3333 125.966 31.8C126.533 31.9667 126.816 32.1667 126.816 32.4C126.816 32.4667 126.716 32.5 126.516 32.5C126.35 32.5 126.016 32.45 125.516 32.35C124.583 32.05 123.633 31.8333 122.666 31.7C121.733 31.5667 120.8 31.5 119.866 31.5C119.533 31.5 119.2 31.5167 118.866 31.55C118.533 31.55 118.2 31.5667 117.866 31.6C118.566 33.4333 118.916 35.1667 118.916 36.8C118.916 39 118.333 40.7833 117.166 42.15C116 43.5167 114.483 44.2 112.616 44.2ZM164.672 20.666C164.281 20.6009 163.793 20.5521 163.207 20.5195C162.654 20.487 162.117 20.4707 161.596 20.4707C161.01 20.4707 160.391 20.487 159.74 20.5195C159.057 20.5521 158.373 20.5846 157.689 20.6172C157.104 20.6497 156.436 20.6986 155.688 20.7637C154.971 20.7962 154.271 20.8451 153.588 20.9102C153.848 20.7799 154.076 20.6009 154.271 20.373C154.499 20.1452 154.695 19.9173 154.857 19.6895C155.02 19.429 155.167 19.1523 155.297 18.8594C155.46 18.3711 155.443 17.7852 155.248 17.1016C155.053 16.3854 154.695 15.7344 154.174 15.1484C153.686 14.5625 153.051 14.1068 152.27 13.7812C151.521 13.4232 150.691 13.3418 149.779 13.5371C148.803 13.765 147.924 14.1068 147.143 14.5625C146.394 15.0182 145.759 15.653 145.238 16.4668C144.75 17.248 144.392 18.2246 144.164 19.3965C143.969 20.5358 143.92 21.903 144.018 23.498C144.148 25.4837 144.473 27.0625 144.994 28.2344C145.515 29.4062 146.15 30.2852 146.898 30.8711C147.647 31.457 148.461 31.8151 149.34 31.9453C150.251 32.043 151.146 32.043 152.025 31.9453C152.644 31.8151 153.214 31.5384 153.734 31.1152C154.158 30.7572 154.548 30.2363 154.906 29.5527C155.264 28.8691 155.427 27.9251 155.395 26.7207L161.352 26.4766C160.668 28.3971 159.838 29.9271 158.861 31.0664C157.885 32.1732 156.941 33.0358 156.029 33.6543C154.955 34.3704 153.881 34.8587 152.807 35.1191C151.472 35.347 150.284 35.4447 149.242 35.4121C148.201 35.347 147.257 35.1842 146.41 34.9238C145.564 34.6634 144.783 34.3379 144.066 33.9473C143.35 33.5566 142.667 33.1335 142.016 32.6777C141.592 32.3848 141.12 31.8965 140.6 31.2129C140.079 30.5293 139.59 29.7155 139.135 28.7715C138.679 27.7949 138.305 26.7207 138.012 25.5488C137.719 24.377 137.605 23.1725 137.67 21.9355C137.735 20.666 138.028 19.3965 138.549 18.127C139.07 16.8574 139.9 15.6367 141.039 14.4648C142.764 12.707 144.604 11.5677 146.557 11.0469C148.542 10.4935 150.414 10.347 152.172 10.6074C153.93 10.8353 155.492 11.3398 156.859 12.1211C158.227 12.9023 159.187 13.7487 159.74 14.6602C160.294 15.5716 160.701 16.2715 160.961 16.7598C161.254 17.2155 161.465 17.5736 161.596 17.834C161.758 18.0618 161.889 18.2409 161.986 18.3711C162.117 18.4688 162.296 18.6152 162.523 18.8105C162.686 18.9733 162.882 19.1523 163.109 19.3477C163.305 19.5104 163.533 19.7057 163.793 19.9336C164.053 20.1615 164.346 20.4056 164.672 20.666ZM191.234 20.666C190.844 20.6009 190.355 20.5521 189.77 20.5195C189.216 20.487 188.679 20.4707 188.158 20.4707C187.572 20.4707 186.954 20.487 186.303 20.5195C185.619 20.5521 184.936 20.5846 184.252 20.6172C183.666 20.6497 182.999 20.6986 182.25 20.7637C181.534 20.7962 180.834 20.8451 180.15 20.9102C180.411 20.7799 180.639 20.6009 180.834 20.373C181.062 20.1452 181.257 19.9173 181.42 19.6895C181.583 19.429 181.729 19.1523 181.859 18.8594C182.022 18.3711 182.006 17.7852 181.811 17.1016C181.615 16.3854 181.257 15.7344 180.736 15.1484C180.248 14.5625 179.613 14.1068 178.832 13.7812C178.083 13.4232 177.253 13.3418 176.342 13.5371C175.365 13.765 174.486 14.1068 173.705 14.5625C172.956 15.0182 172.322 15.653 171.801 16.4668C171.312 17.248 170.954 18.2246 170.727 19.3965C170.531 20.5358 170.482 21.903 170.58 23.498C170.71 25.4837 171.036 27.0625 171.557 28.2344C172.077 29.4062 172.712 30.2852 173.461 30.8711C174.21 31.457 175.023 31.8151 175.902 31.9453C176.814 32.043 177.709 32.043 178.588 31.9453C179.206 31.8151 179.776 31.5384 180.297 31.1152C180.72 30.7572 181.111 30.2363 181.469 29.5527C181.827 28.8691 181.99 27.9251 181.957 26.7207L187.914 26.4766C187.23 28.3971 186.4 29.9271 185.424 31.0664C184.447 32.1732 183.503 33.0358 182.592 33.6543C181.518 34.3704 180.443 34.8587 179.369 35.1191C178.035 35.347 176.846 35.4447 175.805 35.4121C174.763 35.347 173.819 35.1842 172.973 34.9238C172.126 34.6634 171.345 34.3379 170.629 33.9473C169.913 33.5566 169.229 33.1335 168.578 32.6777C168.155 32.3848 167.683 31.8965 167.162 31.2129C166.641 30.5293 166.153 29.7155 165.697 28.7715C165.242 27.7949 164.867 26.7207 164.574 25.5488C164.281 24.377 164.167 23.1725 164.232 21.9355C164.298 20.666 164.59 19.3965 165.111 18.127C165.632 16.8574 166.462 15.6367 167.602 14.4648C169.327 12.707 171.166 11.5677 173.119 11.0469C175.105 10.4935 176.977 10.347 178.734 10.6074C180.492 10.8353 182.055 11.3398 183.422 12.1211C184.789 12.9023 185.749 13.7487 186.303 14.6602C186.856 15.5716 187.263 16.2715 187.523 16.7598C187.816 17.2155 188.028 17.5736 188.158 17.834C188.321 18.0618 188.451 18.2409 188.549 18.3711C188.679 18.4688 188.858 18.6152 189.086 18.8105C189.249 18.9733 189.444 19.1523 189.672 19.3477C189.867 19.5104 190.095 19.7057 190.355 19.9336C190.616 20.1615 190.909 20.4056 191.234 20.666ZM190.502 16.1738L199.486 16.2715C198.965 18.2572 198.575 19.9499 198.314 21.3496C198.087 22.7493 197.94 23.9212 197.875 24.8652C197.745 25.9395 197.712 26.8509 197.777 27.5996C197.875 28.2832 198.038 29.0156 198.266 29.7969C198.461 30.4479 198.754 31.1966 199.145 32.043C199.535 32.8893 200.056 33.7357 200.707 34.582C200.316 34.4518 199.893 34.3542 199.438 34.2891C198.982 34.224 198.559 34.1751 198.168 34.1426C197.712 34.11 197.257 34.11 196.801 34.1426C196.345 34.1751 195.84 34.224 195.287 34.2891C194.831 34.3542 194.278 34.4355 193.627 34.5332C192.976 34.6309 192.292 34.7611 191.576 34.9238C192.064 33.459 192.439 32.1895 192.699 31.1152C192.992 30.041 193.204 29.1458 193.334 28.4297C193.464 27.5833 193.546 26.8997 193.578 26.3789C193.578 25.7279 193.578 24.9954 193.578 24.1816C193.578 23.3353 193.578 22.5215 193.578 21.7402C193.578 20.959 193.562 20.2754 193.529 19.6895C193.497 19.071 193.432 18.6803 193.334 18.5176L192.846 18.0293C192.65 17.8665 192.357 17.6387 191.967 17.3457C191.609 17.0202 191.12 16.6296 190.502 16.1738ZM193.969 8.6543C194.652 8.29622 195.336 8.19857 196.02 8.36133C196.736 8.52409 197.289 8.83333 197.68 9.28906C198.07 9.74479 198.201 10.2819 198.07 10.9004C197.973 11.5189 197.452 12.1211 196.508 12.707C195.564 13.2604 194.734 13.4557 194.018 13.293C193.301 13.1302 192.797 12.7884 192.504 12.2676C192.211 11.7467 192.162 11.1445 192.357 10.4609C192.553 9.74479 193.09 9.14258 193.969 8.6543ZM203.979 32.6289C204.206 31.5547 204.369 30.6107 204.467 29.7969C204.597 28.9505 204.695 28.2507 204.76 27.6973C204.825 27.0462 204.857 26.4928 204.857 26.0371C204.825 25.4837 204.792 24.8327 204.76 24.084C204.76 23.3027 204.727 22.5378 204.662 21.7891C204.63 21.0078 204.581 20.3242 204.516 19.7383C204.451 19.1198 204.369 18.6803 204.271 18.4199C204.141 18.1595 203.962 17.8828 203.734 17.5898C203.279 17.0365 202.611 16.4993 201.732 15.9785C202.481 15.8158 203.116 15.6855 203.637 15.5879C204.19 15.4577 204.646 15.3438 205.004 15.2461C205.395 15.1159 205.736 15.002 206.029 14.9043C206.29 14.8066 206.599 14.709 206.957 14.6113C207.25 14.5462 207.608 14.4648 208.031 14.3672C208.454 14.2695 208.943 14.1556 209.496 14.0254L209.35 18.4688C210.391 17.2318 211.449 16.304 212.523 15.6855C213.598 15.0671 214.607 14.6276 215.551 14.3672C216.625 14.0417 217.683 13.8789 218.725 13.8789C220.027 13.944 221.231 14.1556 222.338 14.5137C223.477 14.8717 224.454 15.2949 225.268 15.7832C226.114 16.2389 226.798 16.7272 227.318 17.248C227.839 17.7689 228.148 18.2246 228.246 18.6152C228.637 19.8848 228.734 21.0566 228.539 22.1309C228.344 23.1725 228.083 24.1979 227.758 25.207C227.465 26.1836 227.204 27.1602 226.977 28.1367C226.781 29.1133 226.863 30.1712 227.221 31.3105C227.351 31.6035 227.481 31.8965 227.611 32.1895C227.742 32.4499 227.904 32.7103 228.1 32.9707C228.295 33.2311 228.523 33.4427 228.783 33.6055C228.425 33.5729 228.067 33.5566 227.709 33.5566C227.351 33.5241 227.025 33.4915 226.732 33.459C226.374 33.4264 226.049 33.3939 225.756 33.3613C225.43 33.3288 224.991 33.3125 224.438 33.3125C223.493 33.3125 222.029 33.3613 220.043 33.459C220.336 32.7754 220.564 32.2057 220.727 31.75C220.922 31.2617 221.085 30.8711 221.215 30.5781C221.345 30.2201 221.443 29.9434 221.508 29.748C221.898 28.804 222.126 27.7298 222.191 26.5254C222.289 25.321 222.208 24.1003 221.947 22.8633C221.85 22.4401 221.687 21.9355 221.459 21.3496C221.231 20.7637 220.922 20.194 220.531 19.6406C220.173 19.0872 219.734 18.6152 219.213 18.2246C218.725 17.834 218.155 17.6061 217.504 17.541C216.853 17.4759 216.12 17.6387 215.307 18.0293C214.525 18.4199 213.679 19.1361 212.768 20.1777C212.084 21.0566 211.547 22.1309 211.156 23.4004C210.798 24.4746 210.554 25.8255 210.424 27.4531C210.294 29.0482 210.489 30.9199 211.01 33.0684C210.554 33.0033 210.131 32.9707 209.74 32.9707C209.35 32.9382 209.024 32.9056 208.764 32.873C208.438 32.8405 208.145 32.8079 207.885 32.7754C207.592 32.7754 207.266 32.7591 206.908 32.7266C206.583 32.7266 206.176 32.7266 205.688 32.7266C205.199 32.694 204.63 32.6615 203.979 32.6289ZM244.457 30.1387C245.368 30.1387 246.215 30.041 246.996 29.8457C247.647 29.6829 248.266 29.4225 248.852 29.0645C249.47 28.6738 249.877 28.1042 250.072 27.3555C250.723 27.4857 251.277 27.5996 251.732 27.6973C252.188 27.7624 252.579 27.8275 252.904 27.8926C253.262 27.9902 253.572 28.0553 253.832 28.0879C254.092 28.153 254.402 28.2181 254.76 28.2832C255.085 28.3483 255.476 28.4297 255.932 28.5273C256.42 28.5924 256.99 28.6901 257.641 28.8203C257.152 28.7552 256.648 28.804 256.127 28.9668C255.639 29.1296 255.167 29.3086 254.711 29.5039C254.19 29.7318 253.702 30.0085 253.246 30.334C252.953 30.5293 252.611 30.8223 252.221 31.2129C251.863 31.6035 251.342 31.9779 250.658 32.3359C249.975 32.694 249.063 33.0033 247.924 33.2637C246.817 33.4915 245.385 33.5729 243.627 33.5078C241.511 33.4427 239.737 33.0684 238.305 32.3848C236.872 31.6686 235.717 30.806 234.838 29.7969C233.959 28.7552 233.324 27.6322 232.934 26.4277C232.543 25.2233 232.331 24.1003 232.299 23.0586C232.266 22.0169 232.576 20.9264 233.227 19.7871C233.878 18.6478 234.789 17.6061 235.961 16.6621C237.165 15.7181 238.614 14.9531 240.307 14.3672C241.999 13.7487 243.855 13.4395 245.873 13.4395C247.045 13.4395 248.119 13.5859 249.096 13.8789C250.105 14.1393 251.016 14.4974 251.83 14.9531C252.676 15.4089 253.409 15.9297 254.027 16.5156C254.646 17.069 255.167 17.6387 255.59 18.2246C256.013 18.8431 256.371 19.4941 256.664 20.1777C256.924 20.7637 257.136 21.431 257.299 22.1797C257.462 22.9284 257.51 23.6934 257.445 24.4746C254.971 24.5397 252.969 24.5885 251.439 24.6211C249.942 24.6536 248.77 24.6699 247.924 24.6699H245.727H244.066C243.48 24.6699 242.715 24.6862 241.771 24.7188C240.827 24.7513 239.672 24.8001 238.305 24.8652C238.467 26.1673 238.874 27.1764 239.525 27.8926C240.209 28.5762 240.925 29.097 241.674 29.4551C242.52 29.8457 243.448 30.0736 244.457 30.1387ZM240.062 21.3496C241.104 21.4147 241.967 21.4635 242.65 21.4961C243.367 21.5286 243.952 21.5612 244.408 21.5938C244.896 21.6263 245.287 21.6426 245.58 21.6426H246.801C247.615 21.6426 249.128 21.5938 251.342 21.4961C251.244 20.0638 250.935 18.9733 250.414 18.2246C249.926 17.4759 249.405 16.9225 248.852 16.5645C248.201 16.1738 247.484 15.946 246.703 15.8809C244.587 15.9134 243.008 16.3529 241.967 17.1992C240.958 18.0456 240.323 19.429 240.062 21.3496ZM275.414 20.0801C276.684 20.1126 277.839 20.1289 278.881 20.1289C279.955 20.1289 280.883 20.1289 281.664 20.1289C282.576 20.1289 283.406 20.1126 284.154 20.0801C284.936 20.0801 285.928 20.0475 287.133 19.9824C288.174 19.9499 289.477 19.901 291.039 19.8359C292.634 19.7708 294.571 19.6895 296.85 19.5918L296.605 24.5723C294.783 24.4421 293.253 24.3607 292.016 24.3281C290.811 24.263 289.835 24.2142 289.086 24.1816C288.207 24.1491 287.491 24.1491 286.938 24.1816C286.384 24.2142 285.603 24.263 284.594 24.3281C283.747 24.3932 282.592 24.4746 281.127 24.5723C279.695 24.6374 277.872 24.7513 275.658 24.9141L275.414 20.0801ZM311.107 11.0957C311.661 11.1934 312.23 11.2747 312.816 11.3398C313.37 11.3724 313.874 11.4049 314.33 11.4375C314.851 11.4701 315.355 11.4863 315.844 11.4863C316.332 11.4863 316.885 11.4701 317.504 11.4375C318.025 11.4049 318.643 11.3561 319.359 11.291C320.108 11.2259 320.922 11.1283 321.801 10.998C321.28 11.291 320.873 11.6003 320.58 11.9258C320.287 12.2513 320.059 12.5443 319.896 12.8047C319.701 13.1302 319.571 13.4232 319.506 13.6836C319.441 13.944 319.457 14.4811 319.555 15.2949C319.652 16.1087 319.783 17.0527 319.945 18.127C320.141 19.2012 320.352 20.3242 320.58 21.4961C320.808 22.668 321.036 23.7422 321.264 24.7188C321.524 25.6953 321.752 26.5091 321.947 27.1602C322.175 27.8112 322.354 28.1204 322.484 28.0879C322.615 28.0879 322.81 27.7624 323.07 27.1113C323.363 26.4603 323.689 25.6628 324.047 24.7188C324.405 23.7422 324.779 22.6842 325.17 21.5449C325.561 20.373 325.902 19.2826 326.195 18.2734C326.488 17.2643 326.716 16.418 326.879 15.7344C327.074 15.0182 327.156 14.5951 327.123 14.4648C327.025 14.3346 326.911 14.1556 326.781 13.9277C326.553 13.5697 326.049 12.9512 325.268 12.0723C326.212 12.1374 327.025 12.2025 327.709 12.2676C328.393 12.3001 328.946 12.349 329.369 12.4141C329.857 12.4792 330.248 12.528 330.541 12.5605C330.834 12.5931 331.257 12.5931 331.811 12.5605C332.266 12.5605 332.868 12.5443 333.617 12.5117C334.398 12.4466 335.359 12.349 336.498 12.2188C335.652 12.707 334.952 13.1465 334.398 13.5371C333.878 13.8952 333.471 14.2044 333.178 14.4648C332.82 14.7904 332.559 15.0671 332.396 15.2949C332.169 15.7181 331.762 16.7272 331.176 18.3223C330.915 19.0059 330.59 19.8522 330.199 20.8613C329.841 21.8704 329.402 23.0911 328.881 24.5234C328.393 25.9232 327.807 27.5671 327.123 29.4551C326.439 31.3431 325.674 33.5078 324.828 35.9492L320.092 36.4375C319.473 34.3867 318.969 32.6777 318.578 31.3105C318.22 29.9108 317.927 28.7878 317.699 27.9414C317.439 26.9648 317.243 26.1999 317.113 25.6465C316.951 25.028 316.755 24.1328 316.527 22.9609C316.299 21.7565 316.072 20.5358 315.844 19.2988C315.616 18.0618 315.388 16.9551 315.16 15.9785C314.932 14.9694 314.753 14.3509 314.623 14.123C314.493 13.9603 314.265 13.7324 313.939 13.4395C313.679 13.179 313.321 12.8698 312.865 12.5117C312.41 12.1211 311.824 11.6491 311.107 11.0957ZM334.008 16.1738L342.992 16.2715C342.471 18.2572 342.081 19.9499 341.82 21.3496C341.592 22.7493 341.446 23.9212 341.381 24.8652C341.251 25.9395 341.218 26.8509 341.283 27.5996C341.381 28.2832 341.544 29.0156 341.771 29.7969C341.967 30.4479 342.26 31.1966 342.65 32.043C343.041 32.8893 343.562 33.7357 344.213 34.582C343.822 34.4518 343.399 34.3542 342.943 34.2891C342.488 34.224 342.064 34.1751 341.674 34.1426C341.218 34.11 340.762 34.11 340.307 34.1426C339.851 34.1751 339.346 34.224 338.793 34.2891C338.337 34.3542 337.784 34.4355 337.133 34.5332C336.482 34.6309 335.798 34.7611 335.082 34.9238C335.57 33.459 335.945 32.1895 336.205 31.1152C336.498 30.041 336.71 29.1458 336.84 28.4297C336.97 27.5833 337.051 26.8997 337.084 26.3789C337.084 25.7279 337.084 24.9954 337.084 24.1816C337.084 23.3353 337.084 22.5215 337.084 21.7402C337.084 20.959 337.068 20.2754 337.035 19.6895C337.003 19.071 336.938 18.6803 336.84 18.5176L336.352 18.0293C336.156 17.8665 335.863 17.6387 335.473 17.3457C335.115 17.0202 334.626 16.6296 334.008 16.1738ZM337.475 8.6543C338.158 8.29622 338.842 8.19857 339.525 8.36133C340.242 8.52409 340.795 8.83333 341.186 9.28906C341.576 9.74479 341.706 10.2819 341.576 10.9004C341.479 11.5189 340.958 12.1211 340.014 12.707C339.07 13.2604 338.24 13.4557 337.523 13.293C336.807 13.1302 336.303 12.7884 336.01 12.2676C335.717 11.7467 335.668 11.1445 335.863 10.4609C336.059 9.74479 336.596 9.14258 337.475 8.6543ZM345.971 3.72266C346.719 3.91797 347.403 4.06445 348.021 4.16211C348.673 4.22721 349.226 4.27604 349.682 4.30859C350.235 4.34115 350.74 4.35742 351.195 4.35742C351.651 4.35742 352.221 4.32487 352.904 4.25977C354.109 4.16211 355.818 3.91797 358.031 3.52734C357.673 3.78776 357.331 4.04818 357.006 4.30859C356.713 4.53646 356.452 4.76432 356.225 4.99219L355.492 5.72461C355.069 6.31055 354.646 7.30339 354.223 8.70312C353.865 9.90755 353.474 11.6003 353.051 13.7812C352.66 15.9622 352.302 18.8594 351.977 22.4727C353.572 20.9102 355.069 19.7383 356.469 18.957C357.901 18.1432 359.154 17.5573 360.229 17.1992C361.498 16.8086 362.654 16.597 363.695 16.5645C365.03 16.6621 366.186 16.9388 367.162 17.3945C368.171 17.8177 369.018 18.3385 369.701 18.957C370.417 19.543 370.987 20.1615 371.41 20.8125C371.866 21.431 372.208 21.9844 372.436 22.4727C372.566 22.7982 372.663 23.4004 372.729 24.2793C372.826 25.1257 372.842 26.1022 372.777 27.209C372.712 28.3158 372.533 29.4876 372.24 30.7246C371.98 31.929 371.54 33.0521 370.922 34.0938C370.336 35.1029 369.555 35.9492 368.578 36.6328C367.634 37.3164 366.446 37.6908 365.014 37.7559C363.354 37.7559 361.742 37.5605 360.18 37.1699C358.845 36.8444 357.429 36.2747 355.932 35.4609C354.467 34.6146 353.214 33.4102 352.172 31.8477C352.172 32.2383 352.172 32.6289 352.172 33.0195C352.172 33.3776 352.188 33.6868 352.221 33.9473C352.253 34.3053 352.286 34.6146 352.318 34.875C352.351 35.168 352.432 35.4772 352.562 35.8027C352.66 36.0632 352.807 36.3887 353.002 36.7793C353.23 37.1374 353.523 37.4954 353.881 37.8535C353.523 37.821 353.165 37.8047 352.807 37.8047C352.449 37.7721 352.09 37.7721 351.732 37.8047C351.342 37.8372 350.951 37.8698 350.561 37.9023C350.17 37.9349 349.763 37.9837 349.34 38.0488C348.982 38.1139 348.559 38.1953 348.07 38.293C347.582 38.3906 347.077 38.5046 346.557 38.6348C346.654 38.3418 346.736 37.9186 346.801 37.3652C346.866 36.7793 346.931 36.1445 346.996 35.4609C347.094 34.7448 347.159 33.9961 347.191 33.2148C347.257 32.4336 347.322 31.6523 347.387 30.8711C347.517 29.0807 347.631 27.1276 347.729 25.0117C347.826 21.724 347.842 18.6641 347.777 15.832C347.745 14.6276 347.68 13.4069 347.582 12.1699C347.517 10.9329 347.419 9.77734 347.289 8.70312C347.159 7.59635 346.98 6.61979 346.752 5.77344C346.557 4.89453 346.296 4.21094 345.971 3.72266ZM352.318 27.502C352.839 28.446 353.393 29.2598 353.979 29.9434C354.564 30.5944 355.15 31.1478 355.736 31.6035C356.322 32.0592 356.892 32.4173 357.445 32.6777C358.031 32.9382 358.585 33.1335 359.105 33.2637C360.31 33.5892 361.498 33.6217 362.67 33.3613C363.842 33.0358 364.753 32.3848 365.404 31.4082C366.055 30.4316 366.56 29.3249 366.918 28.0879C367.081 27.502 367.178 26.7533 367.211 25.8418C367.276 24.9303 367.178 24.0514 366.918 23.2051C366.69 22.3262 366.267 21.5612 365.648 20.9102C365.03 20.2266 364.135 19.8197 362.963 19.6895C362.149 19.6895 361.205 19.9173 360.131 20.373C359.187 20.7637 358.064 21.4147 356.762 22.3262C355.46 23.2051 353.979 24.5234 352.318 26.2812V27.502ZM387.768 30.1387C388.679 30.1387 389.525 30.041 390.307 29.8457C390.958 29.6829 391.576 29.4225 392.162 29.0645C392.781 28.6738 393.188 28.1042 393.383 27.3555C394.034 27.4857 394.587 27.5996 395.043 27.6973C395.499 27.7624 395.889 27.8275 396.215 27.8926C396.573 27.9902 396.882 28.0553 397.143 28.0879C397.403 28.153 397.712 28.2181 398.07 28.2832C398.396 28.3483 398.786 28.4297 399.242 28.5273C399.73 28.5924 400.3 28.6901 400.951 28.8203C400.463 28.7552 399.958 28.804 399.438 28.9668C398.949 29.1296 398.477 29.3086 398.021 29.5039C397.501 29.7318 397.012 30.0085 396.557 30.334C396.264 30.5293 395.922 30.8223 395.531 31.2129C395.173 31.6035 394.652 31.9779 393.969 32.3359C393.285 32.694 392.374 33.0033 391.234 33.2637C390.128 33.4915 388.695 33.5729 386.938 33.5078C384.822 33.4427 383.048 33.0684 381.615 32.3848C380.183 31.6686 379.027 30.806 378.148 29.7969C377.27 28.7552 376.635 27.6322 376.244 26.4277C375.854 25.2233 375.642 24.1003 375.609 23.0586C375.577 22.0169 375.886 20.9264 376.537 19.7871C377.188 18.6478 378.1 17.6061 379.271 16.6621C380.476 15.7181 381.924 14.9531 383.617 14.3672C385.31 13.7487 387.165 13.4395 389.184 13.4395C390.355 13.4395 391.43 13.5859 392.406 13.8789C393.415 14.1393 394.327 14.4974 395.141 14.9531C395.987 15.4089 396.719 15.9297 397.338 16.5156C397.956 17.069 398.477 17.6387 398.9 18.2246C399.324 18.8431 399.682 19.4941 399.975 20.1777C400.235 20.7637 400.447 21.431 400.609 22.1797C400.772 22.9284 400.821 23.6934 400.756 24.4746C398.282 24.5397 396.28 24.5885 394.75 24.6211C393.253 24.6536 392.081 24.6699 391.234 24.6699H389.037H387.377C386.791 24.6699 386.026 24.6862 385.082 24.7188C384.138 24.7513 382.982 24.8001 381.615 24.8652C381.778 26.1673 382.185 27.1764 382.836 27.8926C383.52 28.5762 384.236 29.097 384.984 29.4551C385.831 29.8457 386.758 30.0736 387.768 30.1387ZM383.373 21.3496C384.415 21.4147 385.277 21.4635 385.961 21.4961C386.677 21.5286 387.263 21.5612 387.719 21.5938C388.207 21.6263 388.598 21.6426 388.891 21.6426H390.111C390.925 21.6426 392.439 21.5938 394.652 21.4961C394.555 20.0638 394.245 18.9733 393.725 18.2246C393.236 17.4759 392.715 16.9225 392.162 16.5645C391.511 16.1738 390.795 15.946 390.014 15.8809C387.898 15.9134 386.319 16.3529 385.277 17.1992C384.268 18.0456 383.633 19.429 383.373 21.3496ZM424.242 10.1191C423.949 10.8353 423.689 11.4863 423.461 12.0723C423.266 12.6582 423.087 13.179 422.924 13.6348C422.761 14.1556 422.615 14.6113 422.484 15.002C422.354 15.4577 422.208 15.9785 422.045 16.5645C421.882 17.0853 421.671 17.7363 421.41 18.5176C421.182 19.2663 420.906 20.1615 420.58 21.2031C420.32 19.6406 419.848 18.4036 419.164 17.4922C418.48 16.5482 417.781 15.8158 417.064 15.2949C416.218 14.709 415.307 14.2858 414.33 14.0254C412.572 13.7324 411.303 13.765 410.521 14.123C409.74 14.4811 409.219 14.9368 408.959 15.4902C408.829 15.7181 408.682 16.0111 408.52 16.3691C408.389 16.6947 408.275 17.0365 408.178 17.3945C408.113 17.7526 408.096 18.1107 408.129 18.4688C408.161 18.8268 408.308 19.1198 408.568 19.3477C408.731 19.5104 409.154 19.7383 409.838 20.0312C410.521 20.2917 411.335 20.6009 412.279 20.959C413.256 21.2845 414.281 21.6426 415.355 22.0332C416.462 22.4238 417.504 22.8145 418.48 23.2051C419.457 23.5957 420.303 23.9863 421.02 24.377C421.736 24.7676 422.208 25.1257 422.436 25.4512C422.631 25.7767 422.842 26.2161 423.07 26.7695C423.331 27.2904 423.51 27.8763 423.607 28.5273C423.738 29.1458 423.77 29.7969 423.705 30.4805C423.673 31.1315 423.493 31.7826 423.168 32.4336C422.842 33.0846 422.322 33.6868 421.605 34.2402C420.922 34.7936 419.994 35.2493 418.822 35.6074C417.455 36.0306 416.137 36.1445 414.867 35.9492C413.598 35.7539 412.426 35.4609 411.352 35.0703C410.31 34.6797 409.398 34.3053 408.617 33.9473C407.836 33.5566 407.283 33.3939 406.957 33.459C406.599 33.5241 406.192 33.7031 405.736 33.9961C405.281 34.2891 404.841 34.5983 404.418 34.9238C404.027 35.2168 403.686 35.4935 403.393 35.7539C403.1 35.9818 402.953 36.0632 402.953 35.998C402.953 35.9329 403.002 35.7376 403.1 35.4121C403.23 35.0866 403.36 34.696 403.49 34.2402C403.653 33.752 403.799 33.2311 403.93 32.6777C404.092 32.0918 404.206 31.5384 404.271 31.0176C404.337 30.5944 404.418 30.0736 404.516 29.4551C404.581 28.9017 404.662 28.2344 404.76 27.4531C404.89 26.6393 405.036 25.6628 405.199 24.5234C405.362 25.3698 405.59 26.1022 405.883 26.7207C406.208 27.3392 406.518 27.8763 406.811 28.332C407.169 28.8529 407.51 29.2923 407.836 29.6504C408.324 30.1061 408.894 30.5293 409.545 30.9199C410.229 31.3105 410.912 31.6523 411.596 31.9453C412.279 32.2057 412.93 32.3685 413.549 32.4336C414.167 32.4987 414.688 32.4336 415.111 32.2383C415.535 32.043 415.893 31.6849 416.186 31.1641C416.511 30.6432 416.739 30.0736 416.869 29.4551C416.999 28.8366 417.048 28.2507 417.016 27.6973C416.983 27.1113 416.837 26.6393 416.576 26.2812C416.381 26.0534 415.925 25.7604 415.209 25.4023C414.525 25.0443 413.695 24.6536 412.719 24.2305C411.775 23.8073 410.766 23.3678 409.691 22.9121C408.65 22.4564 407.657 22.0007 406.713 21.5449C405.801 21.0566 405.036 20.6009 404.418 20.1777C403.832 19.722 403.507 19.3151 403.441 18.957C403.376 18.4362 403.327 17.8665 403.295 17.248C403.262 16.597 403.295 15.9622 403.393 15.3438C403.523 14.6927 403.751 14.0742 404.076 13.4883C404.434 12.9023 404.955 12.4141 405.639 12.0234C406.094 11.763 406.697 11.5677 407.445 11.4375C408.194 11.3073 409.024 11.2422 409.936 11.2422C410.847 11.2096 411.791 11.2422 412.768 11.3398C413.744 11.4049 414.672 11.5026 415.551 11.6328C416.462 11.7305 417.276 11.8607 417.992 12.0234C418.741 12.1862 419.311 12.3327 419.701 12.4629C420.157 12.6257 420.645 12.6419 421.166 12.5117C421.622 12.4141 422.11 12.2025 422.631 11.877C423.152 11.5514 423.689 10.9655 424.242 10.1191Z" fill="white"/>
</svg>
