<svg width="200" height="54" viewBox="0 0 200 54" fill="none" xmlns="http://www.w3.org/2000/svg">
<path d="M133.069 0V39.1418C137.897 39.3664 142.713 39.638 147.514 39.9583V48.2569C139.924 47.7509 132.301 47.3646 124.646 47.1013V0H133.069ZM200 0.00463714L189.032 25.4321L199.997 53.728L199.985 53.7334C196.791 53.2777 193.593 52.8475 190.385 52.4351L184.228 36.5538L178.012 50.9609C175.066 50.6356 172.116 50.3278 169.159 50.0394L179.851 25.2621L170.059 0.00463714H179.171L184.653 14.139L190.749 0.00463714H200ZM95.7395 46.6899L95.7392 0.00448709H119.251V8.37762H104.162V19.2296H115.579V27.5281H104.162V46.688L95.7395 46.6899ZM64.2891 8.37832L64.2888 0.00405061H90.34V8.37773H81.5255V46.9171C78.7142 46.9907 75.9059 47.0779 73.1033 47.1836V8.37832H64.2891ZM35.4954 49.5962V0.00545539H58.8899V8.37859H43.9168V19.7207C47.3567 19.6766 52.2477 19.6267 55.2906 19.6341V27.9333C51.4816 27.886 47.1821 27.9855 43.9168 28.0181V40.5819C48.8933 40.1905 53.8848 39.8481 58.8899 39.5589V47.8583C51.0563 48.3095 43.2578 48.8909 35.4954 49.5962ZM18.9731 30.4117L18.9725 0.00409164H27.3953V50.3785C24.3163 50.6952 21.2431 51.0322 18.1752 51.388L8.42223 23.3689V52.5882C5.60927 52.9545 2.80205 53.3365 0 53.7353V0.00463714H8.00436L18.9731 30.4117ZM154.463 48.7575V0.00469145H162.886V49.453C160.082 49.2034 157.275 48.9726 154.463 48.7575Z" fill="#DB202C"/>
</svg>
