<svg width="150" height="47" viewBox="0 0 150 47" fill="none" xmlns="http://www.w3.org/2000/svg">
<path d="M74.3159 46.1548V46.0798C74.3909 45.9861 74.5221 45.9298 74.6346 45.9486C75.1781 45.9298 75.7029 45.9298 76.2464 45.9486C76.3589 45.9486 76.4901 45.9861 76.5651 46.0798V46.1548H74.3159Z" fill="#D1EFFA"/>
<path d="M76.565 46.0798C75.8153 46.061 75.0655 46.061 74.3158 46.0798C73.285 46.0236 72.2541 45.9861 71.2232 45.9111C68.4868 45.7049 65.769 45.2926 63.1075 44.6741C53.9047 42.5374 45.8265 38.2452 38.7792 32.0038C38.1231 31.4228 37.5046 30.823 36.8674 30.2232C36.7174 30.092 36.5862 29.9046 36.5113 29.7172C36.3988 29.4548 36.455 29.1736 36.6425 28.9674C36.8299 28.7613 37.1298 28.6863 37.3922 28.7988C37.5609 28.8737 37.7295 28.9487 37.8795 29.0424C44.6082 33.2034 51.9555 36.2397 59.6588 38.039C62.2453 38.6388 64.8506 39.1074 67.4746 39.4448C71.242 39.9133 75.0468 40.082 78.8329 39.9508C80.8759 39.8946 82.9001 39.7072 84.9243 39.4448C89.6476 38.845 94.3146 37.7766 98.8316 36.2772C101.212 35.49 103.536 34.5903 105.804 33.5407C106.141 33.3533 106.554 33.2971 106.929 33.3908C107.547 33.5407 107.922 34.178 107.772 34.7965C107.753 34.8715 107.716 34.9652 107.678 35.0402C107.528 35.3213 107.322 35.565 107.06 35.7524C104.904 37.4393 102.58 38.92 100.125 40.157C95.4954 42.4999 90.5472 44.168 85.4491 45.1239C82.5065 45.6487 79.5451 45.9673 76.565 46.0798Z" fill="#00A8E1"/>
<path d="M48.8066 8.08777C49.2752 7.80662 49.7625 7.50674 50.2686 7.24433C51.5806 6.56959 53.0425 6.23221 54.5232 6.30719C55.5916 6.36341 56.5662 6.6633 57.3159 7.45051C58.0282 8.18148 58.2906 9.08115 58.3655 10.0558C58.3843 10.262 58.3843 10.4681 58.3843 10.693V20.4019C58.3843 21.2453 58.2718 21.3578 57.4284 21.3578H55.1417C54.9918 21.3578 54.8418 21.3578 54.6919 21.339C54.467 21.3203 54.2796 21.1329 54.2421 20.908C54.2046 20.7018 54.2046 20.4956 54.2046 20.2894V11.6114C54.2233 11.2553 54.1858 10.918 54.0921 10.5806C53.9422 9.99955 53.4174 9.58721 52.8176 9.54972C51.7118 9.47475 50.6059 9.69966 49.5938 10.1682C49.4439 10.2057 49.3502 10.3557 49.3689 10.5056V20.3644C49.3689 20.5518 49.3689 20.7205 49.3314 20.908C49.3314 21.1704 49.1252 21.3578 48.8628 21.3578C48.5817 21.3765 48.3006 21.3765 48.0007 21.3765H46.0139C45.3204 21.3765 45.1705 21.2078 45.1705 20.5144V11.6489C45.1705 11.3303 45.1517 10.9929 45.0768 10.6743C44.9456 10.037 44.402 9.58721 43.7648 9.54972C42.6402 9.47475 41.4969 9.69966 40.4847 10.187C40.3348 10.2245 40.2411 10.3932 40.2786 10.5431V20.5331C40.2786 21.2266 40.1286 21.3765 39.4351 21.3765H36.9236C36.2676 21.3765 36.0989 21.1891 36.0989 20.5518V7.54422C36.0989 7.39428 36.1176 7.24433 36.1551 7.09439C36.2301 6.86948 36.455 6.73827 36.6799 6.73827H39.0228C39.3602 6.73827 39.5663 6.94445 39.6788 7.26308C39.7725 7.52548 39.8287 7.76914 39.9224 8.05028C40.1099 8.05028 40.2223 7.91908 40.3535 7.84411C41.3844 7.20685 42.4715 6.6633 43.6898 6.43839C44.6269 6.25096 45.5641 6.25096 46.5012 6.43839C47.3821 6.62582 48.1694 7.15062 48.6754 7.90034C48.7129 7.95657 48.7504 7.99405 48.7879 8.03154C48.7691 8.05028 48.7879 8.05028 48.8066 8.08777Z" fill="#00A8E1"/>
<path d="M87.6609 17.4218C87.7734 17.0469 87.8858 16.6908 87.9983 16.3159C88.8605 13.4108 89.7227 10.5244 90.5848 7.6192L90.6973 7.28182C90.791 6.94445 91.1096 6.73828 91.447 6.73828H94.2959C95.0082 6.73828 95.1581 6.94445 94.9145 7.6192L93.7899 10.5993C92.5341 13.8606 91.2783 17.1406 90.0225 20.4019C89.9851 20.5144 89.9288 20.6268 89.8913 20.7393C89.7601 21.1329 89.3665 21.3953 88.9542 21.3578C88.1295 21.3391 87.3048 21.3391 86.4801 21.3578C85.8991 21.3765 85.5617 21.1141 85.3555 20.5893C84.887 19.3523 84.3996 18.0965 83.9311 16.8595C82.8065 13.9168 81.6632 10.9742 80.5386 8.0128C80.4261 7.78788 80.3512 7.52548 80.2949 7.28182C80.2387 6.90696 80.3699 6.71953 80.7448 6.71953C81.8131 6.70079 82.8815 6.71953 83.9311 6.71953C84.3809 6.71953 84.5871 7.01942 84.6995 7.41302C84.9057 8.12526 85.1119 8.85623 85.3368 9.56847C86.1053 12.1737 86.855 14.7978 87.6234 17.403C87.6047 17.4218 87.6234 17.4218 87.6609 17.4218Z" fill="#232F3E"/>
<path d="M21.1046 8.8C21.2358 8.76251 21.3483 8.68754 21.4232 8.57508C21.7606 8.23771 22.1167 7.91908 22.4916 7.61919C23.4662 6.86947 24.6845 6.49461 25.9028 6.58833C26.3901 6.60707 26.5588 6.75701 26.5963 7.22559C26.6338 7.86285 26.615 8.51885 26.615 9.15611C26.6338 9.41851 26.615 9.66217 26.5776 9.92457C26.5026 10.2619 26.3714 10.3931 26.034 10.4306C25.7716 10.4494 25.528 10.4306 25.2655 10.4119C24.0098 10.2994 22.7915 10.5431 21.6107 10.9367C21.3483 11.0304 21.3483 11.2178 21.3483 11.424V20.4206C21.3483 20.5893 21.3483 20.7393 21.3295 20.908C21.3108 21.1516 21.1234 21.339 20.8797 21.339C20.7485 21.3578 20.5985 21.3578 20.4673 21.3578H18.0308C17.8996 21.3578 17.7496 21.3578 17.6184 21.339C17.3748 21.3203 17.1873 21.1141 17.1686 20.8705C17.1498 20.7205 17.1498 20.5706 17.1498 20.4206V7.67542C17.1498 6.81324 17.2436 6.71953 18.1057 6.71953H19.9051C20.3924 6.71953 20.6173 6.88821 20.7485 7.35679C20.8797 7.82536 20.9922 8.29394 21.1046 8.8Z" fill="#00A8E1"/>
<path d="M108.784 27.8054C110.021 27.8429 111.24 27.9178 112.439 28.2365C112.777 28.3302 113.095 28.4427 113.414 28.5926C113.845 28.7613 114.126 29.1736 114.182 29.6235C114.257 30.1483 114.276 30.6918 114.238 31.2354C113.995 34.4404 113.001 37.533 111.352 40.2882C110.752 41.2816 110.021 42.1812 109.178 42.9685C109.009 43.1371 108.803 43.2683 108.578 43.3433C108.222 43.437 107.997 43.2496 107.978 42.8935C107.997 42.7061 108.035 42.5186 108.11 42.3312C108.766 40.5694 109.403 38.8263 109.909 37.0082C110.209 36.0148 110.415 35.0027 110.546 33.9718C110.584 33.597 110.602 33.2221 110.565 32.8473C110.546 32.21 110.134 31.6664 109.515 31.479C108.934 31.2916 108.334 31.1791 107.716 31.1416C105.992 31.0667 104.267 31.1416 102.562 31.3666L100.294 31.6477C100.05 31.6664 99.8251 31.6477 99.6939 31.4228C99.5627 31.1979 99.619 30.973 99.7502 30.748C99.9001 30.5419 100.088 30.3544 100.312 30.2232C101.699 29.2299 103.255 28.6301 104.904 28.2365C106.179 27.9741 107.472 27.8429 108.784 27.8054Z" fill="#00A8E1"/>
<path d="M100.931 14.048V20.7955C100.893 21.1704 100.725 21.3391 100.35 21.3578C99.3377 21.3765 98.3443 21.3765 97.3322 21.3578C96.9573 21.3578 96.7887 21.1704 96.7512 20.8143C96.7324 20.7018 96.7324 20.5706 96.7324 20.4581V7.488C96.7512 6.90697 96.9011 6.73828 97.4821 6.73828H100.181C100.762 6.73828 100.931 6.90697 100.931 7.488V14.048Z" fill="#232F3E"/>
<path d="M28.4144 14.0106V7.3568C28.4331 6.90697 28.6018 6.73828 29.0516 6.71954C30.0263 6.7008 31.0009 6.7008 31.9755 6.71954C32.4066 6.71954 32.5378 6.85074 32.5753 7.28183C32.5941 7.45052 32.5941 7.60046 32.5941 7.76915V20.252C32.5941 20.4581 32.5753 20.6643 32.5566 20.8705C32.5378 21.1141 32.3504 21.2828 32.1067 21.3016C31.9943 21.3203 31.9006 21.3203 31.7881 21.3203H29.1828C29.0891 21.3203 29.0141 21.3203 28.9204 21.3016C28.658 21.2828 28.4331 21.0767 28.4144 20.8143C28.3956 20.6643 28.3956 20.5144 28.3956 20.3644C28.4144 18.284 28.4144 16.1473 28.4144 14.0106Z" fill="#00A8E1"/>
<path d="M30.5885 0.00954211C30.8884 -0.00920086 31.1883 0.0470281 31.4694 0.140743C32.4816 0.478116 33.0064 1.35904 32.9126 2.50236C32.8377 3.47699 32.1067 4.2642 31.1321 4.41414C30.7197 4.48911 30.2886 4.48911 29.8763 4.41414C28.8079 4.20797 28.0207 3.42076 28.0957 2.07127C28.2082 0.740518 29.0891 0.00954211 30.5885 0.00954211Z" fill="#00A8E1"/>
<path d="M98.8505 0.00955269C99.2253 -0.0279333 99.6002 0.0470386 99.9563 0.196982C100.687 0.478127 101.193 1.15287 101.231 1.94008C101.381 3.64569 100.237 4.50787 98.7193 4.47038C98.5131 4.47038 98.3069 4.43289 98.1008 4.39541C96.9387 4.11426 96.3389 3.2146 96.4514 1.92134C96.5451 0.890472 97.351 0.122011 98.4569 0.0282957C98.5881 0.00955269 98.7193 -0.00919028 98.8505 0.00955269Z" fill="#232F3E"/>
<path d="M14.3759 12.4736C14.3009 11.499 14.0385 10.5431 13.6449 9.66218C12.8764 8.05028 11.6956 6.86947 9.89629 6.45713C7.83456 6.0073 5.97901 6.45713 4.29214 7.71291C4.17968 7.82537 4.04848 7.91908 3.89854 7.99405C3.86105 7.97531 3.82357 7.95657 3.82357 7.93782C3.76734 7.75039 3.72985 7.56297 3.67362 7.37554C3.52368 6.90696 3.33625 6.73827 2.83019 6.73827C2.2679 6.73827 1.68687 6.75702 1.12458 6.73827C0.69349 6.71953 0.299888 6.77576 0 7.11313C0 13.6732 0 20.252 0.018743 26.7933C0.262402 27.1869 0.637261 27.2618 1.06835 27.2431C1.7431 27.2243 2.41784 27.2431 3.09259 27.2431C4.2734 27.2431 4.2734 27.2431 4.2734 26.081V20.7393C4.2734 20.6081 4.21717 20.4581 4.34837 20.3457C5.28552 21.0766 6.42884 21.5265 7.60965 21.6389C9.25903 21.8076 10.7585 21.3953 12.0142 20.2707C12.9327 19.4273 13.6074 18.3402 13.9635 17.1406C14.4696 15.6037 14.5071 14.048 14.3759 12.4736ZM9.89629 16.3534C9.76509 16.9345 9.4652 17.4593 9.03411 17.8529C8.5468 18.2652 7.94702 18.5089 7.30976 18.5089C6.35387 18.5651 5.41672 18.3589 4.57329 17.9091C4.36711 17.8154 4.23591 17.6092 4.25465 17.3843V13.9918C4.25465 12.8672 4.2734 11.7426 4.25465 10.6181C4.23591 10.3557 4.38586 10.1308 4.62951 10.037C5.66038 9.54972 6.72873 9.3248 7.85331 9.54972C8.64051 9.66218 9.31526 10.1682 9.63389 10.8992C9.91503 11.499 10.0837 12.155 10.1212 12.811C10.2337 14.0105 10.2337 15.2101 9.89629 16.3534Z" fill="#00A8E1"/>
<path d="M149.981 12.886V12.961C149.906 12.886 149.869 12.7735 149.906 12.6798V12.5299C149.906 12.5299 149.906 12.5111 149.925 12.5111H149.906V12.3237H149.944C149.944 12.3049 149.925 12.3049 149.925 12.2862C149.888 11.9301 149.813 11.574 149.719 11.2366C149.025 8.76253 147.47 7.13189 144.939 6.49463C143.759 6.21348 142.559 6.176 141.36 6.36343C138.829 6.73829 137.011 8.08778 136.13 10.4869C135.268 12.7735 135.287 15.2851 136.149 17.5717C136.899 19.6522 138.398 20.9642 140.554 21.5077C141.697 21.7889 142.896 21.8639 144.077 21.6952C148.013 21.2266 149.644 18.2465 149.906 15.6599H149.888V15.3975C149.869 15.2851 149.85 15.1914 149.963 15.1164V15.1539C149.963 15.1351 149.981 15.0977 150 15.0789V12.9235C150 12.9047 149.981 12.9047 149.981 12.886ZM145.483 16.4471C145.371 16.8407 145.202 17.1969 144.958 17.5342C144.546 18.1153 143.89 18.4901 143.178 18.5464C142.822 18.5838 142.465 18.5838 142.109 18.5089C141.322 18.3589 140.666 17.8341 140.347 17.1031C140.066 16.5221 139.898 15.8849 139.841 15.2476C139.748 14.1418 139.729 13.0359 139.991 11.9488C140.085 11.5177 140.272 11.0867 140.497 10.7118C140.91 10.037 141.622 9.60596 142.409 9.54973C142.765 9.51225 143.121 9.51225 143.478 9.58722C144.227 9.73716 144.846 10.2245 145.183 10.918C145.502 11.574 145.689 12.3049 145.727 13.0359C145.745 13.3733 145.764 13.7107 145.745 14.048C145.802 14.8727 145.708 15.6787 145.483 16.4471Z" fill="#232F3E"/>
<path d="M117.125 0.140762H114.52C113.807 0.140762 113.676 0.271963 113.676 0.984196V7.05692C113.676 7.18812 113.732 7.31932 113.639 7.45052C113.47 7.43178 113.376 7.31932 113.245 7.24435C111.296 6.10103 109.253 5.89485 107.191 6.85075C105.748 7.52549 104.848 8.74379 104.267 10.187C103.705 11.574 103.574 13.0359 103.611 14.5166C103.611 15.9036 103.93 17.2718 104.548 18.5089C105.261 19.8771 106.291 20.9267 107.791 21.3765C109.834 22.0138 111.746 21.6952 113.489 20.4019C113.62 20.3269 113.695 20.1957 113.864 20.1583C113.957 20.3644 114.032 20.5893 114.07 20.8143C114.145 21.1141 114.407 21.3203 114.726 21.3203H115.176C115.85 21.3203 116.506 21.3391 117.162 21.3203C117.687 21.3203 117.837 21.1516 117.856 20.6081V0.852995C117.837 0.271963 117.687 0.140762 117.125 0.140762ZM113.695 13.9356V17.3468C113.732 17.5717 113.601 17.7779 113.395 17.8716C112.495 18.3777 111.464 18.5838 110.452 18.4339C109.59 18.3402 108.84 17.8154 108.447 17.0469C108.147 16.4471 107.978 15.8099 107.922 15.1539C107.772 13.9731 107.866 12.7735 108.147 11.6302C108.241 11.3116 108.353 11.0117 108.522 10.7118C108.915 9.98082 109.665 9.51225 110.49 9.45602C111.483 9.3623 112.477 9.54973 113.376 9.96208C113.601 10.0371 113.732 10.262 113.714 10.5056C113.676 11.6677 113.695 12.7923 113.695 13.9356Z" fill="#232F3E"/>
<path d="M65.2255 15.2288C66.6312 15.4913 68.0744 15.51 69.4801 15.2851C70.3048 15.1726 71.092 14.929 71.823 14.5354C72.6665 14.048 73.285 13.3733 73.5474 12.4361C74.2034 10.0745 73.1913 7.69417 70.7359 6.81325C69.5364 6.41965 68.2619 6.28845 67.0061 6.45714C64.0447 6.79451 62.1142 8.42515 61.2332 11.2553C60.6147 13.1859 60.6897 15.1539 61.1958 17.1031C61.8518 19.596 63.5011 21.0767 65.994 21.6015C67.4184 21.9201 68.8616 21.8639 70.2861 21.6389C71.0358 21.5077 71.7855 21.3203 72.4978 21.0392C72.9289 20.8705 73.1538 20.6081 73.135 20.1208C73.1163 19.6709 73.135 19.2024 73.135 18.7338C73.135 18.1715 72.9101 18.0028 72.3666 18.134C71.823 18.2652 71.2982 18.3777 70.7547 18.4901C69.5926 18.7338 68.3931 18.7338 67.231 18.5276C65.6378 18.209 64.607 16.8407 64.7007 15.1539C64.8694 15.1726 65.0568 15.1914 65.2255 15.2288ZM64.7569 12.3612C64.8131 11.9113 64.9443 11.4803 65.113 11.0679C65.6753 9.69967 66.8561 9.2311 68.0557 9.30607C68.3931 9.32481 68.7304 9.39978 69.0491 9.53099C69.5364 9.73716 69.855 10.187 69.9112 10.7118C69.9675 11.0304 69.9487 11.3678 69.855 11.6864C69.6301 12.3612 69.0865 12.6423 68.4305 12.7735C68.0369 12.8672 67.6246 12.9047 67.2122 12.8672C66.4813 12.8672 65.7315 12.811 65.0006 12.6985C64.7194 12.6611 64.7194 12.6611 64.7569 12.3612Z" fill="#00A8E1"/>
<path d="M128.446 15.4163C129.533 15.3413 130.62 15.1351 131.594 14.6103C132.588 14.123 133.281 13.2046 133.488 12.1175C133.619 11.4428 133.619 10.7305 133.469 10.0558C133.075 8.36891 132.007 7.31931 130.395 6.77576C129.495 6.49462 128.539 6.38216 127.602 6.41964C124.453 6.49462 122.054 8.08777 121.08 11.2366C120.424 13.3171 120.517 15.435 121.155 17.5155C121.811 19.6522 123.31 20.9454 125.447 21.5265C126.365 21.7514 127.321 21.8451 128.258 21.8076C129.626 21.7889 130.995 21.5265 132.288 21.0392C132.832 20.833 132.963 20.6456 132.963 20.0645V18.715C132.944 18.1715 132.719 17.9841 132.176 18.1153C131.763 18.2277 131.37 18.3214 130.957 18.4151C129.701 18.715 128.389 18.7713 127.115 18.5463C125.84 18.3027 124.978 17.5717 124.641 16.2972C124.547 15.9223 124.472 15.5475 124.435 15.1539C124.528 15.1539 124.622 15.1539 124.697 15.1914C125.934 15.4163 127.19 15.51 128.446 15.4163ZM124.528 12.4174C124.66 11.6864 124.828 10.9742 125.278 10.3744C125.972 9.45601 126.927 9.1936 128.015 9.30606C128.108 9.30606 128.183 9.34355 128.277 9.34355C129.589 9.54972 129.908 10.5993 129.664 11.6114C129.477 12.3612 128.858 12.6423 128.165 12.7735C127.79 12.8485 127.396 12.886 127.002 12.8672C126.234 12.8485 125.484 12.7923 124.735 12.6798C124.566 12.6611 124.491 12.5861 124.528 12.4174Z" fill="#232F3E"/>
</svg>
